<svg version="1.2" xmlns="http://www.w3.org/2000/svg" xmlns:xlink="http://www.w3.org/1999/xlink" overflow="visible" preserveAspectRatio="none" viewBox="0 0 754.0700073242188 261.95001220703125" width="430" height="149"><g transform="translate(1, 1)"><defs><style>.cls-1_1615496882264{fill:#fff;}</style></defs><title>Filarmonica Blanco</title><g id="Layer_2_1615496882264"><g id="Capa_1_1615496882264"><rect height="259.95" width="10.2" x="279.53" class="cls-1_1615496882264" vector-effect="non-scaling-stroke"/><path d="M335.86,179.76V119.41h28.27c11.48,0,17.22,4.72,17.22,14.07q0,10.29-11.21,14.72,12,2.25,12,13.7,0,17.88-18.85,17.86Zm26.93-9.7q7.41,0,7.42-7.6,0-9.41-11.1-9.41h-3.38v-7.2q13.92-2.35,13.92-11.65c0-3.36-2.06-5.07-6.23-5.07H347.05v40.93Z" class="cls-1_1615496882264" vector-effect="non-scaling-stroke"/><path d="M386.48,157.6q0-22.56,22.35-22.56T431.2,157.6q0,22.54-22.37,22.54T386.48,157.6m22.35,13.73c7.47,0,11.18-4.63,11.18-13.89,0-9-3.71-13.54-11.18-13.54s-11.17,4.52-11.17,13.54q0,13.89,11.17,13.89" class="cls-1_1615496882264" vector-effect="non-scaling-stroke"/><rect height="60.35" width="11.2" y="119.41" x="438.13" class="cls-1_1615496882264" vector-effect="non-scaling-stroke"/><path d="M473.14,115v8.88l-16.87,6.33v-8.87Zm-3,64.78H459V135.45h11.18Z" class="cls-1_1615496882264" vector-effect="non-scaling-stroke"/><polygon points="474.6 135.46 486.42 135.46 497.17 166.44 508.36 135.46 520.17 135.46 502.14 179.76 491.52 179.76 474.6 135.46" class="cls-1_1615496882264" vector-effect="non-scaling-stroke"/><path d="M522.46,166q0-13.65,19.25-13.63a57.64,57.64,0,0,1,10.29.84V150.3c0-4-3.84-6-11.52-6a50.65,50.65,0,0,0-14.42,2.12v-8.86a50.64,50.64,0,0,1,14.42-2.11q22.71,0,22.7,14.59v29.71h-5.65l-4.81-3.11a25.57,25.57,0,0,1-12.33,3.11q-17.91,0-17.93-13.79m19.25-5.21c-5.36,0-8.07,1.7-8.07,5.07s2.26,5.06,6.75,5.06A19,19,0,0,0,552,167.43v-5.8a51.9,51.9,0,0,0-10.29-.87" class="cls-1_1615496882264" vector-effect="non-scaling-stroke"/><path d="M572.88,179.76v-44.3h8.64l1.39,5.67q5.83-5.67,12.33-5.67v9c-4.18,0-7.9,1.87-11.19,5.6v29.67Z" class="cls-1_1615496882264" vector-effect="non-scaling-stroke"/><path d="M335.81,255.43V195.12H362q28.26,0,28.26,28.5,0,31.82-28.26,31.81Zm24.48-9.71q18.76,0,18.78-22.1,0-18.83-18.78-18.84H347v40.94Z" class="cls-1_1615496882264" vector-effect="non-scaling-stroke"/><path d="M395.48,241.64q0-13.62,19.21-13.63a56,56,0,0,1,10.32.85v-2.93q0-5.94-11.53-6a50.21,50.21,0,0,0-14.41,2.14v-8.87a50.2,50.2,0,0,1,14.41-2.13q22.69,0,22.7,14.6v29.71h-5.66l-4.8-3.13a25.37,25.37,0,0,1-12.33,3.13c-12,0-17.91-4.61-17.91-13.79m19.21-5.2q-8,0-8,5.08c0,3.35,2.24,5,6.73,5A19.14,19.14,0,0,0,425,243.11v-5.84a54.73,54.73,0,0,0-10.32-.83" class="cls-1_1615496882264" vector-effect="non-scaling-stroke"/><polygon points="439.3 211.12 451.11 211.12 461.87 242.09 473.05 211.12 484.87 211.12 466.85 255.43 456.22 255.43 439.3 211.12" class="cls-1_1615496882264" vector-effect="non-scaling-stroke"/><rect height="44.31" width="11.2" y="211.12" x="487.98" class="cls-1_1615496882264" vector-effect="non-scaling-stroke"/><polygon points="502.27 211.12 514.09 211.12 524.84 242.09 536.03 211.12 547.85 211.12 529.82 255.43 519.19 255.43 502.27 211.12" class="cls-1_1615496882264" vector-effect="non-scaling-stroke"/><rect height="44.31" width="11.19" y="211.12" x="550.95" class="cls-1_1615496882264" vector-effect="non-scaling-stroke"/><path d="M500.41,201.16a6.56,6.56,0,1,1-6.56-6.54,6.56,6.56,0,0,1,6.56,6.54" class="cls-1_1615496882264" vector-effect="non-scaling-stroke"/><path d="M563.05,201.16a6.56,6.56,0,1,1-6.55-6.54,6.56,6.56,0,0,1,6.55,6.54" class="cls-1_1615496882264" vector-effect="non-scaling-stroke"/><path d="M607.94,237.62H579q0,8.94,14.61,8.95A72,72,0,0,0,607,245.3v8.87a73.55,73.55,0,0,1-15.1,1.26q-24.12,0-24.1-22.64,0-21.66,22.06-21.67t18.09,26.5m-29-8.17h18.5q.57-9.55-8.87-9.54-8.85,0-9.63,9.54" class="cls-1_1615496882264" vector-effect="non-scaling-stroke"/><path d="M614.19,255.43V211.12h8.64l1.4,5.66q8.06-5.66,16.2-5.66,15.33,0,15.32,16.51v27.8H644.57V227.5q0-7.35-7.3-7.35-5.88,0-11.91,5.62v29.66Z" class="cls-1_1615496882264" vector-effect="non-scaling-stroke"/><path d="M705.08,252.76a81,81,0,0,1-20.74,2.67q-22.3,0-22.31-23,0-21.28,21.44-21.28a25,25,0,0,1,10.43,2.13V195.12h11.18ZM693.9,222.69a22,22,0,0,0-10.39-2.28q-10.43,0-10.42,11.69c0,9.27,3.47,13.87,10.42,13.87a29.67,29.67,0,0,0,10.39-1.63Z" class="cls-1_1615496882264" vector-effect="non-scaling-stroke"/><path d="M711.35,241.64q0-13.62,19.25-13.63a55.74,55.74,0,0,1,10.28.85v-2.93c0-4-3.85-6-11.52-6a50.5,50.5,0,0,0-14.43,2.14v-8.87a50.49,50.49,0,0,1,14.43-2.13q22.73,0,22.71,14.6v29.71h-5.66l-4.82-3.13a25.33,25.33,0,0,1-12.32,3.13q-17.92,0-17.92-13.79m19.25-5.2c-5.39,0-8.07,1.69-8.07,5.08s2.24,5,6.74,5a19.11,19.11,0,0,0,11.61-3.46v-5.84a54.58,54.58,0,0,0-10.28-.83" class="cls-1_1615496882264" vector-effect="non-scaling-stroke"/><polygon points="373.05 47.58 373.05 56.58 346.36 56.58 346.36 70.78 371.71 70.78 371.71 80.14 346.23 80.14 346.23 104.03 335.96 104.03 335.96 47.58 373.05 47.58" class="cls-1_1615496882264" vector-effect="non-scaling-stroke"/><path d="M422.77,62.58V104h-8.18l-1.26-5.29c-5,3.54-10.09,5.29-15.16,5.29q-14.28,0-14.3-15.44v-26h10.47V88.7q0,6.89,6.79,6.89,5.49,0,11.18-5.26V62.58Z" class="cls-1_1615496882264" vector-effect="non-scaling-stroke"/><path d="M433.22,104V62.58h8.09l1.29,5.28c5-3.53,10.08-5.28,15.16-5.28,9.56,0,14.34,5.13,14.34,15.44v26H461.63V77.89c0-4.58-2.26-6.87-6.81-6.87-3.68,0-7.39,1.77-11.15,5.26V104Z" class="cls-1_1615496882264" vector-effect="non-scaling-stroke"/><path d="M520.84,101.55A75.86,75.86,0,0,1,501.46,104q-20.9,0-20.9-21.54,0-19.93,20.05-19.91a23.62,23.62,0,0,1,9.77,2v-17h10.46ZM510.38,73.4a20.46,20.46,0,0,0-9.72-2.14q-9.75,0-9.75,10.95,0,13,9.75,13a27.47,27.47,0,0,0,9.72-1.53Z" class="cls-1_1615496882264" vector-effect="non-scaling-stroke"/><path d="M529.31,91.12q0-12.77,18-12.74a53.66,53.66,0,0,1,9.64.78V76.44c0-3.72-3.6-5.56-10.78-5.56a47.91,47.91,0,0,0-13.51,2v-8.3a47.91,47.91,0,0,1,13.51-2q21.24,0,21.24,13.65V104H562.1l-4.49-2.92A23.71,23.71,0,0,1,546.09,104q-16.79,0-16.78-12.91m18-4.85q-7.54,0-7.55,4.73c0,3.14,2.11,4.74,6.33,4.74A17.92,17.92,0,0,0,557,92.5V87.06a49.88,49.88,0,0,0-9.64-.79" class="cls-1_1615496882264" vector-effect="non-scaling-stroke"/><path d="M609.62,102.84A50.16,50.16,0,0,1,598.19,104q-22.91,0-22.91-21.51,0-19.95,22.91-19.94a50.16,50.16,0,0,1,11.43,1.19v8.29A46.46,46.46,0,0,0,599,70.87q-13.25,0-13.24,11.65,0,13.23,13.24,13.22a46.46,46.46,0,0,0,10.64-1.18Z" class="cls-1_1615496882264" vector-effect="non-scaling-stroke"/><rect height="41.46" width="10.46" y="62.58" x="617.1" class="cls-1_1615496882264" vector-effect="non-scaling-stroke"/><path d="M635.44,83.3q0-21.12,20.93-21.13T677.29,83.3q0,21.09-20.92,21.1T635.44,83.3m20.93,12.83q10.46,0,10.46-13,0-12.66-10.46-12.65T645.9,83.13q0,13,10.47,13" class="cls-1_1615496882264" vector-effect="non-scaling-stroke"/><path d="M685.17,104V62.58h8.09l1.29,5.28q7.53-5.3,15.18-5.28c9.54,0,14.33,5.13,14.33,15.44v26H713.6V77.89c0-4.58-2.29-6.87-6.84-6.87-3.66,0-7.38,1.77-11.14,5.26V104Z" class="cls-1_1615496882264" vector-effect="non-scaling-stroke"/><path d="M629.53,53.49A6.52,6.52,0,1,1,623,47a6.52,6.52,0,0,1,6.52,6.51" class="cls-1_1615496882264" vector-effect="non-scaling-stroke"/><polygon points="670.52 43.95 670.52 52.78 653.7 59.07 653.7 50.25 670.52 43.95" class="cls-1_1615496882264" vector-effect="non-scaling-stroke"/><path d="M335.83,17.47V4.89h2.69V17.47c0,4,1.92,5.87,5.86,5.87s5.86-1.92,5.86-5.87V4.89h2.64V17.47c0,5.35-2.85,8-8.5,8s-8.55-2.65-8.55-8" class="cls-1_1615496882264" vector-effect="non-scaling-stroke"/><polygon points="357.6 25.38 357.6 4.89 360.24 4.89 372.77 21.42 372.77 4.89 375.29 4.89 375.29 25.38 372.62 25.38 360.11 8.75 360.11 25.38 357.6 25.38" class="cls-1_1615496882264" vector-effect="non-scaling-stroke"/><path d="M387.31,25.38V4.89h8.31c4.15,0,6.24,1.85,6.24,5.49,0,4-2.84,6.4-8.56,7.27l-.55-2.24c4.2-.58,6.31-2.23,6.31-4.89,0-2.28-1.25-3.45-3.69-3.45H390V25.38Z" class="cls-1_1615496882264" vector-effect="non-scaling-stroke"/><path d="M405.4,25.38V4.89h8.7C418,4.89,420,6.52,420,9.82c0,2.66-1.94,4.62-5.74,5.91l7,9.65h-3.48l-6.53-9.22V14.43c3.91-.62,5.88-2.12,5.88-4.49,0-1.89-1.08-2.87-3.26-2.87H408V25.38Z" class="cls-1_1615496882264" vector-effect="non-scaling-stroke"/><path d="M423.31,15.13c0-6.89,3.43-10.38,10.29-10.38s10.1,3.49,10.1,10.38-3.34,10.34-10.1,10.34-10.29-3.4-10.29-10.34m10.29,8.21c4.88,0,7.32-2.74,7.32-8.25s-2.44-8.21-7.32-8.21-7.48,2.75-7.48,8.21,2.49,8.25,7.48,8.25" class="cls-1_1615496882264" vector-effect="non-scaling-stroke"/><polygon points="445.08 4.89 448.07 4.89 453.96 15.59 459.95 4.89 463.01 4.89 455.18 18.18 455.18 25.38 452.56 25.38 452.56 18.18 445.08 4.89" class="cls-1_1615496882264" vector-effect="non-scaling-stroke"/><polygon points="479.2 4.89 479.2 7.06 468.45 7.06 468.45 13.92 478.7 13.92 478.7 16.06 468.45 16.06 468.45 23.21 479.42 23.21 479.42 25.38 465.82 25.38 465.82 4.89 479.2 4.89" class="cls-1_1615496882264" vector-effect="non-scaling-stroke"/><path d="M498.87,24.63a17.55,17.55,0,0,1-5.74.84c-7.14,0-10.71-3.48-10.71-10.63,0-6.71,3.57-10.09,10.71-10.09a19.63,19.63,0,0,1,5.74.86V7.93a14.76,14.76,0,0,0-5.45-1c-5.59,0-8.37,2.67-8.37,8,0,5.68,2.78,8.49,8.37,8.49a16,16,0,0,0,5.45-1Z" class="cls-1_1615496882264" vector-effect="non-scaling-stroke"/><polygon points="517.05 4.89 517.05 7.06 510.58 7.06 510.58 25.38 507.96 25.38 507.96 7.06 501.51 7.06 501.51 4.89 517.05 4.89" class="cls-1_1615496882264" vector-effect="non-scaling-stroke"/><path d="M519.47,15.13c0-6.89,3.43-10.38,10.3-10.38,6.71,0,10.13,3.49,10.13,10.38s-3.42,10.34-10.13,10.34c-6.87,0-10.3-3.4-10.3-10.34m10.3,8.21c4.87,0,7.31-2.74,7.31-8.25s-2.44-8.21-7.31-8.21c-5,0-7.49,2.75-7.49,8.21s2.46,8.25,7.49,8.25" class="cls-1_1615496882264" vector-effect="non-scaling-stroke"/><path d="M550.41,25.26V4.82h7.44Q568,4.82,568,14.48q0,10.79-10.15,10.78Zm7.44-2.14q7.5,0,7.5-8.64,0-7.51-7.5-7.52h-4.79V23.12Z" class="cls-1_1615496882264" vector-effect="non-scaling-stroke"/><polygon points="585.22 4.82 585.22 6.96 574.5 6.96 574.5 13.82 584.72 13.82 584.72 15.97 574.5 15.97 574.5 23.12 585.43 23.12 585.43 25.26 571.86 25.26 571.86 4.82 585.22 4.82" class="cls-1_1615496882264" vector-effect="non-scaling-stroke"/><path d="M591.8,12.9h-2.65V10.25h2.65Zm0,12.36h-2.65V22.62h2.65Z" class="cls-1_1615496882264" vector-effect="non-scaling-stroke"/><polygon points="0.26 167.65 4.4 167.65 4.4 158.18 11.92 158.18 11.92 154.68 4.4 154.68 4.4 149.59 11.92 149.59 13.45 146.03 0.26 146.03 0.26 167.65" class="cls-1_1615496882264" vector-effect="non-scaling-stroke"/><polygon points="19.43 168.26 23.58 168.26 23.58 145.56 19.43 147.13 19.43 168.26" class="cls-1_1615496882264" vector-effect="non-scaling-stroke"/><polygon points="36.26 164.66 36.26 146.09 31.99 146.09 31.99 168.26 46.7 168.26 45.13 164.66 36.26 164.66" class="cls-1_1615496882264" vector-effect="non-scaling-stroke"/><path d="M62.28,145.46l-2.44,1L50.25,167.3l3.64,1.76,3.61-7.82h7.71L68.75,169l3.73-1.7Zm-3.2,12.29,2.26-5,2.29,5Z" class="cls-1_1615496882264" vector-effect="non-scaling-stroke"/><path d="M88.47,157.27a5.4,5.4,0,0,0,3.39-5.35,5.87,5.87,0,0,0-.42-2.18,5,5,0,0,0-1.32-1.9,6.52,6.52,0,0,0-2.41-1.31,10.91,10.91,0,0,0-3.62-.5H77.78v21.69h4.11v-9.35h2.76l7,10.32L95,166.58Zm-1.78-3.09a4.88,4.88,0,0,1-2.86.7H81.89v-5.34h1.86a4.66,4.66,0,0,1,2.94.73,2.35,2.35,0,0,1,.93,1.9,2.47,2.47,0,0,1-.93,2" class="cls-1_1615496882264" vector-effect="non-scaling-stroke"/><polygon points="109.55 156.23 102.43 146.59 99.28 144.43 99.28 168.88 103.44 167.38 103.44 154.49 103.51 154.49 109.55 162.83 115.62 154.47 115.65 154.47 115.65 167.38 119.8 168.88 119.8 144.34 116.68 146.59 109.55 156.23" class="cls-1_1615496882264" vector-effect="non-scaling-stroke"/><polygon points="146.52 143.75 143.57 140.83 139.99 144.39 144.02 146.24 146.52 143.75" class="cls-1_1615496882264" vector-effect="non-scaling-stroke"/><path d="M146.65,152.56a11,11,0,0,0-2.47-3.52,11.34,11.34,0,0,0-3.7-2.37,12.31,12.31,0,0,0-9.14,0,11.1,11.1,0,0,0-3.67,2.37,10.78,10.78,0,0,0-2.46,3.52,10.57,10.57,0,0,0-.9,4.36,10.44,10.44,0,0,0,.9,4.34,11.42,11.42,0,0,0,2.46,3.54,11.26,11.26,0,0,0,3.67,2.37,13,13,0,0,0,9.14,0,11.5,11.5,0,0,0,3.7-2.37,11.62,11.62,0,0,0,2.47-3.54,10.6,10.6,0,0,0,.9-4.34,10.73,10.73,0,0,0-.9-4.36m-3.88,7.29a7.22,7.22,0,0,1-1.57,2.36,7,7,0,0,1-2.36,1.57,7.17,7.17,0,0,1-2.89.57,7.31,7.31,0,0,1-2.92-.57,7,7,0,0,1-2.33-1.57,7.53,7.53,0,0,1-1.56-2.36,7.17,7.17,0,0,1-.59-2.93,7.28,7.28,0,0,1,.59-3,7.69,7.69,0,0,1,1.56-2.37,7.05,7.05,0,0,1,5.25-2.12,7.7,7.7,0,0,1,2.89.54,7.82,7.82,0,0,1,2.36,1.58,7.37,7.37,0,0,1,1.57,2.37,7.8,7.8,0,0,1,.57,3,7.69,7.69,0,0,1-.57,2.93" class="cls-1_1615496882264" vector-effect="non-scaling-stroke"/><polygon points="168.29 160.5 155.53 146.22 152.24 144.57 152.24 167.65 156.39 167.65 156.39 153.09 169.24 167.46 172.42 169.08 172.42 146.03 168.29 146.03 168.29 160.5" class="cls-1_1615496882264" vector-effect="non-scaling-stroke"/><polygon points="179.1 168.26 183.26 168.26 183.26 145.56 179.1 147.13 179.1 168.26" class="cls-1_1615496882264" vector-effect="non-scaling-stroke"/><path d="M205.12,163.22c-.67.25-1.31.44-1.88.6a9.75,9.75,0,0,1-1.62.31,12.19,12.19,0,0,1-1.45.1,8.13,8.13,0,0,1-3-.54,7.43,7.43,0,0,1-2.35-1.54,7,7,0,0,1-1.52-2.33,8.07,8.07,0,0,1-.54-3,7.84,7.84,0,0,1,.54-3,7.14,7.14,0,0,1,1.52-2.38,6.79,6.79,0,0,1,2.27-1.59,7.15,7.15,0,0,1,2.83-.56,11.16,11.16,0,0,1,3.42.52,27.29,27.29,0,0,1,3.46,1.4l1.7-3.5A24.57,24.57,0,0,0,204,146.1a19,19,0,0,0-3.92-.42,12.17,12.17,0,0,0-4.33.79,11.75,11.75,0,0,0-3.68,2.28,10.9,10.9,0,0,0-2.56,3.52,10.44,10.44,0,0,0-1,4.55,11,11,0,0,0,.86,4.4,11.54,11.54,0,0,0,2.45,3.52,11.26,11.26,0,0,0,3.69,2.31,12.54,12.54,0,0,0,4.67.84,19.43,19.43,0,0,0,3.94-.43,17.13,17.13,0,0,0,4.54-1.71l-1.32-3.54a20.32,20.32,0,0,1-2.23,1" class="cls-1_1615496882264" vector-effect="non-scaling-stroke"/><path d="M223.14,145.46l-2.45,1-9.58,20.81,3.63,1.76,3.6-7.82h7.72l3.55,7.76,3.72-1.7Zm-3.22,12.29,2.27-5,2.27,5Z" class="cls-1_1615496882264" vector-effect="non-scaling-stroke"/><path d="M6.42,207.06a7.39,7.39,0,0,1-.57,3.31,2.09,2.09,0,0,1-1.67,1.2H3.11a9.27,9.27,0,0,1-2.85-.93L1,217.22l2,.17a12.11,12.11,0,0,0,1.38.12,8.08,8.08,0,0,0,3.51-.66,10,10,0,0,0,2.81-2.09,7.31,7.31,0,0,0,2-3.5,20,20,0,0,0,.54-4.92V180.18l-6.76,2.51Z" class="cls-1_1615496882264" vector-effect="non-scaling-stroke"/><path d="M53.69,192.41a18.16,18.16,0,0,0-4-5.75,20,20,0,0,0-20.88-3.84,19.12,19.12,0,0,0-6,3.84,18.29,18.29,0,0,0-4,5.75,18,18,0,0,0,0,14.2,18.29,18.29,0,0,0,10,9.59,20.42,20.42,0,0,0,14.86,0,18.81,18.81,0,0,0,6-3.85,18.35,18.35,0,0,0,4-5.74,18,18,0,0,0,0-14.2M47.38,204.3a11.41,11.41,0,0,1-2.57,3.85,12.06,12.06,0,0,1-8.54,3.48,12,12,0,0,1-4.74-.93,11.81,11.81,0,0,1-6.35-6.4,11.94,11.94,0,0,1-.95-4.81,11.76,11.76,0,0,1,.95-4.78,12,12,0,0,1,2.56-3.87,11.56,11.56,0,0,1,3.79-2.55,12.36,12.36,0,0,1,4.74-.93,12.21,12.21,0,0,1,4.71.93,11.72,11.72,0,0,1,6.4,6.42,12.45,12.45,0,0,1,.93,4.78,12.64,12.64,0,0,1-.93,4.81" class="cls-1_1615496882264" vector-effect="non-scaling-stroke"/><polygon points="70.12 204.67 59.88 180.1 53.77 182.69 67.5 215.95 71.22 218.99 86.39 182.69 80.33 180.1 70.12 204.67" class="cls-1_1615496882264" vector-effect="non-scaling-stroke"/><polygon points="95.98 211.34 95.98 202.14 109.16 202.14 109.16 196.46 95.98 196.46 95.98 187.55 109.21 187.55 111.75 181.79 89.21 181.79 89.21 217 111.84 217 109.95 211.34 95.98 211.34" class="cls-1_1615496882264" vector-effect="non-scaling-stroke"/><polygon points="143.03 205.37 122.23 182.09 116.88 179.4 116.88 217 123.64 217 123.64 193.27 144.57 216.71 149.74 219.34 149.74 181.8 143.03 181.8 143.03 205.37" class="cls-1_1615496882264" vector-effect="non-scaling-stroke"/><path d="M206.13,193.2a14.23,14.23,0,0,0-3.13-5.65,16.8,16.8,0,0,0-6-4.14,23.84,23.84,0,0,0-9.39-1.61H174.36V217h14a21.33,21.33,0,0,0,8.81-1.62,15.65,15.65,0,0,0,5.77-4.21,15.84,15.84,0,0,0,3.15-5.74,21,21,0,0,0,1-6.27,21.42,21.42,0,0,0-.91-6m-7,11.18a11.21,11.21,0,0,1-2.61,3.83,11.68,11.68,0,0,1-3.83,2.34,13.1,13.1,0,0,1-4.52.79h-7.07V187.55h6.66a14,14,0,0,1,5,.86,11.77,11.77,0,0,1,3.91,2.37,10.09,10.09,0,0,1,2.53,3.66,12.11,12.11,0,0,1,.89,4.72,13.18,13.18,0,0,1-1,5.22" class="cls-1_1615496882264" vector-effect="non-scaling-stroke"/><polygon points="217.67 211.34 217.67 202.14 230.84 202.14 230.84 196.46 217.67 196.46 217.67 187.55 230.9 187.55 233.44 181.79 210.91 181.79 210.91 217 233.54 217 231.63 211.34 217.67 211.34" class="cls-1_1615496882264" vector-effect="non-scaling-stroke"/><path d="M24.83,250.63a29.12,29.12,0,0,1-2.8.91,20.91,20.91,0,0,1-2.42.47,16.42,16.42,0,0,1-2.16.16,11.72,11.72,0,0,1-4.45-.84,10.23,10.23,0,0,1-3.5-2.27,10.4,10.4,0,0,1-2.29-3.53,12.74,12.74,0,0,1,0-8.94A11,11,0,0,1,9.48,233a10.52,10.52,0,0,1,3.39-2.37,10.84,10.84,0,0,1,4.24-.84,17.07,17.07,0,0,1,5.12.78,34.68,34.68,0,0,1,5.17,2.1L30,227.46a34.36,34.36,0,0,0-6.85-2.41,27.88,27.88,0,0,0-5.84-.66,17.36,17.36,0,0,0-6.48,1.23A17,17,0,0,0,5.28,229a16.76,16.76,0,0,0-3.85,5.25A15.79,15.79,0,0,0,0,241.06a16.33,16.33,0,0,0,1.32,6.59A16,16,0,0,0,5,252.88a16.18,16.18,0,0,0,5.53,3.51,19,19,0,0,0,7,1.24,30.82,30.82,0,0,0,5.88-.62,26.36,26.36,0,0,0,6.77-2.57l-2-5.31a31.23,31.23,0,0,1-3.35,1.5" class="cls-1_1615496882264" vector-effect="non-scaling-stroke"/><path d="M64.54,234.7a16,16,0,0,0-3.69-5.29,17.53,17.53,0,0,0-5.53-3.54,18.57,18.57,0,0,0-13.65,0,17.32,17.32,0,0,0-5.51,3.54,16.57,16.57,0,0,0-3.67,5.29,16.51,16.51,0,0,0,0,13A17.26,17.26,0,0,0,36.16,253a16.94,16.94,0,0,0,5.51,3.52,18.7,18.7,0,0,0,13.65,0A17.13,17.13,0,0,0,60.85,253a16.66,16.66,0,0,0,3.69-5.29,16.4,16.4,0,0,0,0-13m-5.78,10.91a10.84,10.84,0,0,1-5.89,5.88,11,11,0,0,1-4.33.85,11.16,11.16,0,0,1-4.34-.85,10.22,10.22,0,0,1-3.48-2.36,10.84,10.84,0,0,1-2.36-3.52,11.52,11.52,0,0,1,0-8.83,11.28,11.28,0,0,1,2.36-3.52,10.69,10.69,0,0,1,3.48-2.37,11.34,11.34,0,0,1,4.34-.84,11,11,0,0,1,7.87,3.21,11.08,11.08,0,0,1,2.35,3.52,12.16,12.16,0,0,1,0,8.83" class="cls-1_1615496882264" vector-effect="non-scaling-stroke"/><polygon points="76.23 252.07 76.23 224.98 70.01 224.98 70.01 257.28 91.42 257.28 89.14 252.07 76.23 252.07" class="cls-1_1615496882264" vector-effect="non-scaling-stroke"/><path d="M124,234.7a16.47,16.47,0,0,0-3.69-5.29,17.53,17.53,0,0,0-5.53-3.54,18.1,18.1,0,0,0-6.84-1.3,17.89,17.89,0,0,0-6.82,1.3,17.32,17.32,0,0,0-5.51,3.54A16.41,16.41,0,0,0,92,234.7a16.4,16.4,0,0,0,0,13,16.5,16.5,0,0,0,9.18,8.81,17.88,17.88,0,0,0,6.82,1.29,18.1,18.1,0,0,0,6.84-1.29,16.57,16.57,0,0,0,9.22-8.81,16.51,16.51,0,0,0,0-13m-5.8,10.91a10.38,10.38,0,0,1-2.36,3.52,10.54,10.54,0,0,1-3.51,2.36,11.17,11.17,0,0,1-4.35.85,11.06,11.06,0,0,1-4.32-.85,10.54,10.54,0,0,1-3.51-2.36A10.92,10.92,0,0,1,97,241.2a11.52,11.52,0,0,1,.84-4.42,11.82,11.82,0,0,1,2.36-3.52,11,11,0,0,1,3.51-2.37,11.24,11.24,0,0,1,4.32-.84,11.35,11.35,0,0,1,4.35.84,11,11,0,0,1,3.51,2.37,10.79,10.79,0,0,1,2.36,3.52,11.89,11.89,0,0,1,0,8.83" class="cls-1_1615496882264" vector-effect="non-scaling-stroke"/><polygon points="144.72 240.18 134.08 225.78 129.38 222.52 129.38 259.09 135.59 256.86 135.59 237.6 135.67 237.6 144.72 250.05 153.81 237.56 153.85 237.56 153.85 256.86 160.06 259.09 160.06 222.39 155.42 225.78 144.72 240.18" class="cls-1_1615496882264" vector-effect="non-scaling-stroke"/><path d="M186.24,242.83a7.57,7.57,0,0,0-4.13-2.82,9.57,9.57,0,0,0,2.3-2.76,7.89,7.89,0,0,0,.82-3.78,8.84,8.84,0,0,0-.53-2.95,6.86,6.86,0,0,0-1.87-2.75,10.19,10.19,0,0,0-3.7-2,19.26,19.26,0,0,0-6.06-.81H165.5v32.35h10.36a17.58,17.58,0,0,0,4.89-.66,11.59,11.59,0,0,0,3.74-1.77,8.08,8.08,0,0,0,2.4-2.88,8.28,8.28,0,0,0,.85-3.79,8.87,8.87,0,0,0-1.5-5.35M171.7,230.22h1.05a15.06,15.06,0,0,1,2.41.2,5.7,5.7,0,0,1,1.93.64,3.15,3.15,0,0,1,1.28,1.25,3.47,3.47,0,0,1,.47,1.9,3.77,3.77,0,0,1-1.34,3c-.88.76-2.42,1.11-4.65,1.11H171.7Zm9.42,19.07a3.15,3.15,0,0,1-1,1.38,5.22,5.22,0,0,1-1.94,1,10.6,10.6,0,0,1-3.08.39H171.7v-8.54h3.06a11.9,11.9,0,0,1,3.33.39,5.52,5.52,0,0,1,2,1,3.39,3.39,0,0,1,1,1.38,4.31,4.31,0,0,1,.27,1.54,4,4,0,0,1-.27,1.46" class="cls-1_1615496882264" vector-effect="non-scaling-stroke"/><polygon points="192.13 257.28 198.33 257.28 198.33 223.34 192.13 225.66 192.13 257.28" class="cls-1_1615496882264" vector-effect="non-scaling-stroke"/><path d="M219.11,224.08l-3.65,1.54-14.34,31.14,5.43,2.62,5.4-11.73H223.5l5.29,11.64,5.58-2.53Zm-4.79,18.4,3.37-7.45,3.44,7.45Z" class="cls-1_1615496882264" vector-effect="non-scaling-stroke"/><path d="M164.38,49.94C120.32,66.49,32,54.51,32,54.51c77.93,19.16,132.39-4.57,132.39-4.57M60.52,90.77c90.83-12.18,138.83-60.16,138.83-60.16-39.92,36-138.83,60.16-138.83,60.16m85.2-38.36c-39.95,4.48-110.52-24-110.52-24,60.46,32.23,110.52,24,110.52,24m-4.8,53.65c61.78-39.72,80.3-90.84,80.3-90.84-16.73,39.72-80.3,90.84-80.3,90.84m76.77-92.68C182.74,65.76,77.41,121.64,77.41,121.64,177,81.63,217.69,13.38,217.69,13.38m4.57-7.92A3.56,3.56,0,1,0,225.84,9a3.56,3.56,0,0,0-3.58-3.56" class="cls-1_1615496882264" vector-effect="non-scaling-stroke"/><path d="M165.43,49.94C121.36,66.49,33,54.51,33,54.51c77.93,19.16,132.4-4.57,132.4-4.57" class="cls-1_1615496882264" vector-effect="non-scaling-stroke"/><path d="M217.74,13.28c-35,52.38-140.28,108.26-140.28,108.26,99.63-40,140.28-108.26,140.28-108.26" class="cls-1_1615496882264" vector-effect="non-scaling-stroke"/></g></g></g></svg>