<svg xmlns="http://www.w3.org/2000/svg" width="80" height="67.748" viewBox="0 0 80 67.748">
  <g id="quote-left" transform="translate(0 0)">
    <g id="Group_1" data-name="Group 1" transform="translate(0 0)">
      <path id="Path_1" data-name="Path 1" d="M36.885,40.02a9.265,9.265,0,0,0-9.232-9.243H16.9a4.632,4.632,0,0,1-4.616-4.621V24.631A12.29,12.29,0,0,1,24.606,12.339h3.047a3.188,3.188,0,0,0,3.093-3.1V3.1A3.156,3.156,0,0,0,27.653,0H24.606a24.2,24.2,0,0,0-9.555,1.941A24.638,24.638,0,0,0,1.941,15.065,22.75,22.75,0,0,0,0,24.631V58.505a9.265,9.265,0,0,0,9.232,9.243H27.7a9.265,9.265,0,0,0,9.232-9.243V40.02h0Zm43.069,0a9.265,9.265,0,0,0-9.232-9.243H59.966a4.632,4.632,0,0,1-4.616-4.621V24.631A12.349,12.349,0,0,1,67.675,12.339h3.093a3.156,3.156,0,0,0,3.093-3.1V3.1A3.156,3.156,0,0,0,70.768,0H67.675A24.2,24.2,0,0,0,58.12,1.941,24.637,24.637,0,0,0,45.01,15.065a22.75,22.75,0,0,0-1.939,9.566V58.505A9.265,9.265,0,0,0,52.3,67.748H70.768A9.265,9.265,0,0,0,80,58.505V40.02h0Z" transform="translate(0 0)" fill="rgba(255,103,27,0.1)"/>
    </g>
  </g>
</svg>
