<?xml version="1.0" encoding="utf-8"?>
<!-- Generator: Adobe Illustrator 25.0.1, SVG Export Plug-In . SVG Version: 6.00 Build 0)  -->
<svg version="1.1" id="Capa_1" xmlns="http://www.w3.org/2000/svg" xmlns:xlink="http://www.w3.org/1999/xlink" x="0px" y="0px"
	 viewBox="0 0 290 202" style="enable-background:new 0 0 290 202;" xml:space="preserve">
<style type="text/css">
	.st0{fill:#FFFFFF;}
</style>
<circle class="st0" cx="13" cy="11" r="2"/>
<circle class="st0" cx="37" cy="11" r="2"/>
<circle class="st0" cx="61" cy="11" r="2"/>
<circle class="st0" cx="85" cy="11" r="2"/>
<circle class="st0" cx="109" cy="11" r="2"/>
<circle class="st0" cx="133" cy="11" r="2"/>
<circle class="st0" cx="157" cy="11" r="2"/>
<circle class="st0" cx="181" cy="11" r="2"/>
<circle class="st0" cx="205" cy="11" r="2"/>
<circle class="st0" cx="229" cy="11" r="2"/>
<circle class="st0" cx="253" cy="11" r="2"/>
<circle class="st0" cx="277" cy="11" r="2"/>
<circle class="st0" cx="13" cy="31" r="2"/>
<circle class="st0" cx="37" cy="31" r="2"/>
<circle class="st0" cx="61" cy="31" r="2"/>
<circle class="st0" cx="85" cy="31" r="2"/>
<circle class="st0" cx="109" cy="31" r="2"/>
<circle class="st0" cx="133" cy="31" r="2"/>
<circle class="st0" cx="157" cy="31" r="2"/>
<circle class="st0" cx="181" cy="31" r="2"/>
<circle class="st0" cx="205" cy="31" r="2"/>
<circle class="st0" cx="229" cy="31" r="2"/>
<circle class="st0" cx="253" cy="31" r="2"/>
<circle class="st0" cx="277" cy="31" r="2"/>
<circle class="st0" cx="13" cy="51" r="2"/>
<circle class="st0" cx="37" cy="51" r="2"/>
<circle class="st0" cx="61" cy="51" r="2"/>
<circle class="st0" cx="85" cy="51" r="2"/>
<circle class="st0" cx="109" cy="51" r="2"/>
<circle class="st0" cx="133" cy="51" r="2"/>
<circle class="st0" cx="157" cy="51" r="2"/>
<circle class="st0" cx="181" cy="51" r="2"/>
<circle class="st0" cx="205" cy="51" r="2"/>
<circle class="st0" cx="229" cy="51" r="2"/>
<circle class="st0" cx="253" cy="51" r="2"/>
<circle class="st0" cx="277" cy="51" r="2"/>
<circle class="st0" cx="13" cy="71" r="2"/>
<circle class="st0" cx="37" cy="71" r="2"/>
<circle class="st0" cx="61" cy="71" r="2"/>
<circle class="st0" cx="85" cy="71" r="2"/>
<circle class="st0" cx="109" cy="71" r="2"/>
<circle class="st0" cx="133" cy="71" r="2"/>
<circle class="st0" cx="157" cy="71" r="2"/>
<circle class="st0" cx="181" cy="71" r="2"/>
<circle class="st0" cx="205" cy="71" r="2"/>
<circle class="st0" cx="229" cy="71" r="2"/>
<circle class="st0" cx="253" cy="71" r="2"/>
<circle class="st0" cx="277" cy="71" r="2"/>
<circle class="st0" cx="13" cy="91" r="2"/>
<circle class="st0" cx="37" cy="91" r="2"/>
<circle class="st0" cx="61" cy="91" r="2"/>
<circle class="st0" cx="85" cy="91" r="2"/>
<circle class="st0" cx="109" cy="91" r="2"/>
<circle class="st0" cx="133" cy="91" r="2"/>
<circle class="st0" cx="157" cy="91" r="2"/>
<circle class="st0" cx="181" cy="91" r="2"/>
<circle class="st0" cx="205" cy="91" r="2"/>
<circle class="st0" cx="229" cy="91" r="2"/>
<circle class="st0" cx="253" cy="91" r="2"/>
<circle class="st0" cx="277" cy="91" r="2"/>
<circle class="st0" cx="13" cy="111" r="2"/>
<circle class="st0" cx="37" cy="111" r="2"/>
<circle class="st0" cx="61" cy="111" r="2"/>
<circle class="st0" cx="85" cy="111" r="2"/>
<circle class="st0" cx="109" cy="111" r="2"/>
<circle class="st0" cx="133" cy="111" r="2"/>
<circle class="st0" cx="157" cy="111" r="2"/>
<circle class="st0" cx="181" cy="111" r="2"/>
<circle class="st0" cx="13" cy="131" r="2"/>
<circle class="st0" cx="37" cy="131" r="2"/>
<circle class="st0" cx="61" cy="131" r="2"/>
<circle class="st0" cx="85" cy="131" r="2"/>
<circle class="st0" cx="109" cy="131" r="2"/>
<circle class="st0" cx="133" cy="131" r="2"/>
<circle class="st0" cx="157" cy="131" r="2"/>
<circle class="st0" cx="181" cy="131" r="2"/>
<circle class="st0" cx="13" cy="151" r="2"/>
<circle class="st0" cx="37" cy="151" r="2"/>
<circle class="st0" cx="61" cy="151" r="2"/>
<circle class="st0" cx="85" cy="151" r="2"/>
<circle class="st0" cx="109" cy="151" r="2"/>
<circle class="st0" cx="133" cy="151" r="2"/>
<circle class="st0" cx="157" cy="151" r="2"/>
<circle class="st0" cx="181" cy="151" r="2"/>
<circle class="st0" cx="13" cy="171" r="2"/>
<circle class="st0" cx="37" cy="171" r="2"/>
<circle class="st0" cx="61" cy="171" r="2"/>
<circle class="st0" cx="85" cy="171" r="2"/>
<circle class="st0" cx="109" cy="171" r="2"/>
<circle class="st0" cx="133" cy="171" r="2"/>
<circle class="st0" cx="157" cy="171" r="2"/>
<circle class="st0" cx="181" cy="171" r="2"/>
<circle class="st0" cx="13" cy="191" r="2"/>
<circle class="st0" cx="37" cy="191" r="2"/>
<circle class="st0" cx="61" cy="191" r="2"/>
<circle class="st0" cx="85" cy="191" r="2"/>
<circle class="st0" cx="109" cy="191" r="2"/>
<circle class="st0" cx="133" cy="191" r="2"/>
<circle class="st0" cx="157" cy="191" r="2"/>
<circle class="st0" cx="181" cy="191" r="2"/>
</svg>
