<svg id="requisito9" xmlns="http://www.w3.org/2000/svg" width="730.2" height="695.1" viewBox="0 0 730.2 695.1">
  <rect id="Rectangle_13" data-name="Rectangle 13" width="730.2" height="695.1" fill="#fff" opacity="0"/>
  <g id="Group_22" data-name="Group 22">
    <path id="Path_56" data-name="Path 56" d="M443.5,394.5a5.722,5.722,0,0,0,5.7-4.9,118.19,118.19,0,0,0-1.2-37.2h42a5.591,5.591,0,0,0,5.6-5.6V322.9c-1.5-19.3-26-28.1-40.3-30.3-2.5-.4-3.3-3.3-3.5-5.7a36.107,36.107,0,0,0,19.6-32V235.5a35.941,35.941,0,0,0-63.1-23.6,45.371,45.371,0,0,0-85.9-.5,35.97,35.97,0,0,0-62.7,24.1v19.4a35.876,35.876,0,0,0,19.6,32c-.2,2.4-1.1,5.3-3.5,5.7-14.3,2.2-38.8,11.1-40.3,30.3v23.9a5.591,5.591,0,0,0,5.6,5.6H281a125.506,125.506,0,0,0-1.2,37.2,5.722,5.722,0,0,0,5.7,4.9h50.4a5.8,5.8,0,1,0,0-11.6H324.5V359.1a5.8,5.8,0,1,0-11.6,0v23.8H290.6c-.8-11.2-1-39,13.9-55.1,7.9-8.5,19.3-12.6,33.9-12.2l21.5,37.3a5.837,5.837,0,0,0,5.1,2.9,5.768,5.768,0,0,0,5-3l20.5-37.2c14.5-.4,25.9,3.7,33.8,12.2,14.9,16,14.7,43.8,13.9,55.1H417.6V359.1a5.8,5.8,0,0,0-11.6,0v23.8H392.9a5.8,5.8,0,1,0,0,11.6h50.6Zm2.2-117.1a5.692,5.692,0,0,0-2.9,1.1,25.3,25.3,0,0,1-7.3,1.1,24.745,24.745,0,0,1-24.7-24v-9.5a25.67,25.67,0,0,0,8.2-.6,113.623,113.623,0,0,0,33.3,5.5,72.638,72.638,0,0,0,8-.4v4.2A24.88,24.88,0,0,1,445.7,277.4ZM340.6,299.6c-3.8-2.2-11.6-6.2-18.9-7.3-2.7-.4-4-2.3-4-5.8a5.593,5.593,0,0,0-.7-2.6,37.077,37.077,0,0,0,8.1-8.2,46.318,46.318,0,0,0,15.5,17.1Zm-9.1-40.2a34.01,34.01,0,0,0,.3-4.5V242.5c1.8.1,4,.2,6.4.2,12.7,0,31.7-2.1,41.3-13.3,4.5,4.4,11.6,9.5,20,9.7v16.5a34.278,34.278,0,0,1-19.3,29.9c-.2.1-.5.2-.7.3a33.531,33.531,0,0,1-14.2,3.1A34.261,34.261,0,0,1,331.5,259.4Zm56.9,41.5-.3.3V294a45.444,45.444,0,0,0,17.8-18.8,38.09,38.09,0,0,0,8.4,8.6,5.94,5.94,0,0,0-.7,2.6c0,3.5-1.3,5.4-4,5.8C399.7,293.7,388.9,300.6,388.4,300.9Zm47.1-90.3a24.8,24.8,0,0,1,24.8,24.8v3.9c-19,2.3-39.1-4.9-39.4-5a5.8,5.8,0,0,0-4.3.2c-1,.5-3.4.5-5.8.3v-1A24.888,24.888,0,0,1,435.5,210.6ZM331.1,226.3a34.2,34.2,0,0,1,68.4,0v1.5c-8.7-.5-16.3-11-16.3-11.1a5.626,5.626,0,0,0-9.9,1.2c-4.7,13-28.6,14.1-41.8,13.3a25.129,25.129,0,0,0-.4-2.7v-2.2Zm-35.3-15.7a24.866,24.866,0,0,1,24.1,19.1v5.1a13.111,13.111,0,0,1-5.2-.3,5.827,5.827,0,0,0-4.3-.2c-.2.1-20.3,7.3-39.4,5v-3.9A24.86,24.86,0,0,1,295.8,210.6ZM271,254.8v-4.2a70.852,70.852,0,0,0,7.9.4,113.623,113.623,0,0,0,33.3-5.5,28.2,28.2,0,0,0,7.6.6v8.6c0,1.6.1,3.1.2,4.7a24.725,24.725,0,0,1-31.6,19.1,5.692,5.692,0,0,0-2.9-1.1A24.848,24.848,0,0,1,271,254.8ZM296.2,320A59.136,59.136,0,0,0,284,341.1H246.9V323.5c1-11.2,19.4-18.2,30.8-19.9,8-1.2,11.4-7.4,12.6-13.3a34.086,34.086,0,0,0,5.5.5,34.889,34.889,0,0,0,10.8-1.7c.8,6.3,4.7,13,13.5,14.2a34.484,34.484,0,0,1,5.7,1.5C313.8,306.8,303.8,311.8,296.2,320Zm68.7,18.3-12.8-22.2V298.2a44.412,44.412,0,0,0,13.2,2,41.473,41.473,0,0,0,11.2-1.5v18.4h0ZM432.8,320c-7.3-7.9-16.7-12.8-28-14.8a30.693,30.693,0,0,1,6.4-1.8c8.8-1.3,12.6-8,13.5-14.2a35.368,35.368,0,0,0,10.8,1.7,33.084,33.084,0,0,0,5.5-.5c1.2,5.9,4.6,12,12.6,13.3,11.4,1.8,29.7,8.7,30.8,19.9v17.6H445A57.283,57.283,0,0,0,432.8,320Z" fill="#111820"/>
    <path id="Path_57" data-name="Path 57" d="M365.2,164.4a8.706,8.706,0,0,0,8.7-8.7V142.9a8.7,8.7,0,0,0-17.4,0v12.8A8.706,8.706,0,0,0,365.2,164.4Z" fill="#111820"/>
    <path id="Path_58" data-name="Path 58" d="M407.2,173.8l9-9a8.812,8.812,0,0,0,0-12.4h0a8.812,8.812,0,0,0-12.4,0l-9,9a8.768,8.768,0,0,0,12.4,12.4Z" fill="#111820"/>
    <path id="Path_59" data-name="Path 59" d="M323.9,173.4A8.768,8.768,0,0,0,336.3,161l-9-9a8.768,8.768,0,1,0-12.4,12.4Z" fill="#111820"/>
    <path id="Path_60" data-name="Path 60" d="M572.9,289.7c-1-18.4-16.2-23-24.6-23-16.9-1.3-24.6,14.2-26.4,22.6a4.1,4.1,0,0,0-.1,1.1V396c-17.4-21.6-43.5-2.9-57.6,7.2l-1.2.8a172.689,172.689,0,0,0-34.8,33.7c-16.4,21-21.3,46.1-26.1,70.4-.5,2.5-1,5-1.5,7.4l-7.8,38.6a5.659,5.659,0,0,0,4.4,6.6,4.1,4.1,0,0,0,1.1.1,5.564,5.564,0,0,0,5.5-4.5l7.8-38.6,1.5-7.5c4.5-23,9.2-46.8,24-65.7A158.206,158.206,0,0,1,469.6,413l1.2-.8c20.2-14.5,33.7-20.6,42.7-8.9,6.7,8.7-.1,18.2-4.7,23l-37.3,38.8a5.588,5.588,0,0,0,8.1,7.7L516.9,434c.7-.7,1.4-1.5,2-2.2,12.3-11,14.7-18.7,14.3-24V291.2c.6-2.6,4.1-14.2,14.6-13.2h.7c1.3,0,12.6,0,13.4,12.2V404.3c0,9.3-.4,23-4,35.6-3.2,11.1-9.2,19.3-16.1,28.8l-56.5,77.7a5.582,5.582,0,0,0,1.2,7.8,5.681,5.681,0,0,0,3.3,1.1,5.591,5.591,0,0,0,4.5-2.3l54.3-74.7,2.2-3c7.3-9.9,14.1-19.3,17.9-32.3,4-14,4.4-28.8,4.4-38.7V290C572.9,289.9,572.9,289.8,572.9,289.7Z" fill="#111820"/>
    <path id="Path_61" data-name="Path 61" d="M158.7,289.7c1-18.4,16.2-23,24.6-23,16.9-1.3,24.6,14.2,26.4,22.6a4.1,4.1,0,0,1,.1,1.1V396c17.4-21.6,43.5-2.9,57.6,7.2l1.2.8a172.689,172.689,0,0,1,34.8,33.7c16.4,21,21.3,46.1,26.1,70.4.5,2.5,1,5,1.5,7.4l7.8,38.6a5.583,5.583,0,0,1-4.4,6.6,4.1,4.1,0,0,1-1.1.1,5.564,5.564,0,0,1-5.5-4.5L320,517.7l-1.5-7.5c-4.5-23-9.2-46.8-24-65.7A158.206,158.206,0,0,0,262,413l-1.2-.8c-20.2-14.5-33.7-20.6-42.7-8.9-6.7,8.7.1,18.2,4.7,23l37.3,38.8a5.588,5.588,0,0,1-8.1,7.7L214.7,434c-.7-.7-1.4-1.5-2-2.2-12.3-11-14.7-18.7-14.3-24V291.2c-.6-2.6-4.1-14.2-14.6-13.2h-.7c-1.3,0-12.6,0-13.4,12.2V404.3c0,9.3.4,23,4,35.6,3.2,11.1,9.2,19.3,16.1,28.8l56.5,77.7a5.582,5.582,0,0,1-1.2,7.8,5.681,5.681,0,0,1-3.3,1.1,5.591,5.591,0,0,1-4.5-2.3L183,478.3l-2.2-3c-7.3-9.9-14.1-19.3-17.9-32.3-4-14-4.4-28.8-4.4-38.7V290C158.7,289.9,158.7,289.8,158.7,289.7Z" fill="#111820"/>
  </g>
</svg>
