<?xml version="1.0" encoding="utf-8"?>
<!-- Generator: Adobe Illustrator 26.0.2, SVG Export Plug-In . SVG Version: 6.00 Build 0)  -->
<svg version="1.1" id="requisito1" xmlns="http://www.w3.org/2000/svg" xmlns:xlink="http://www.w3.org/1999/xlink" x="0px" y="0px"
	 viewBox="0 0 730.2 695.1" style="enable-background:new 0 0 730.2 695.1;" xml:space="preserve">
<style type="text/css">
	.st0{fill:#FFFFFF;fill-opacity:0;}
	.st1{fill:#111820;}
</style>
<rect id="Rectangle_1" class="st0" width="730.2" height="695.1"/>
<g id="Element_2_">
	<path id="Path_1" class="st1" d="M547.7,397.6c-6.8-9.7-20.4-16.5-28.9-20.1c7.3-13.9,7.3-14.9,7.3-16.4c0-1.8-0.4-2.6-2.3-6.2
		c-16.1-31.1-12.6-38.4-11.1-39.9c3.5-3.7,14.7-16.4,10.2-26.9c-1.3-3-4.9-8-14.9-8c-2.6,0-5.2,0.3-7.8,0.8
		c-13.2,2.4-28.7,1.2-34.5,0.1c-4.3-8.4-18.1-29.3-49-25c-3.1,0.5-6.3,0.7-9.4,0.7c-18,0-22.4-8.7-23.8-11.5l-0.1-0.2
		c-0.5-3-1-15-1.2-25c0-0.7-0.1-1.4-0.4-2c-0.4-1-8.6-24.1-26.2-26.7c0.1-0.2,0.3-0.3,0.4-0.5c6-7.5,13.5-16.8,12.9-26.2
		c-0.6-10,9.7-14.9,10.5-15.1c2.5,0,7.1,0,14.8-16.4c17.1-7,25.8-14.1,26-21.1c0.1-1.9-0.5-6.8-7-9.7c-4.6-2-9.5-2.9-14.5-2.8
		c-16.1,0-35.2,8-46.3,19.5c-7.3,7.4-16.6,12.3-26.8,14.3c-2.8,0.3-5.1,2.5-5.6,5.3l-1.4,7.7l-11.8-9.8c-1.3-1.1-3.1-1.7-4.8-1.5
		c-1.7,0.2-3.3,1.1-4.4,2.5c-2.4,3.1-23.3,31.1-13.6,51.5c1.1,2.3,1.1,3.5,0.9,3.8c-0.9,1.8-7.5,3.1-10.4,3.7c-4.5,0.9-8,1.6-9.7,4
		c-1.7,1.3-9.9,4.1-17.6,6c-2,0.5-3.6,1.9-4.4,3.7c-0.8,1.8-0.7,4,0.3,5.7l6.4,11.3l-15.4-4.9c-3.3-1.1-6.8,0.7-8,3.9l-9.1,24.5
		c-0.7,1.9-0.5,4,0.6,5.7c4.6,7.5,10,16.3,11.7,19.6c-0.6,4.7-2.6,18.8-3.9,27.9c-0.1,0.8-0.1,1.6,0.1,2.4c3.1,12.7,5,26.3,4.5,30.8
		c-1.8,1.5-2.9,3.7-2.9,6c0,1.8-0.1,5.8,9.1,11.4L225,378.2l-29,13.5c-3,1.4-4.5,4.9-3.4,8l2.5,7c-15.4,6.1-16.7,7.2-15.7,12.4
		c0.5,2.5,2.4,4.5,4.8,5.1c3.5,1.4,24.6,12.5,39.7,20.6c3.8,6.4,11.9,17.8,20.8,17.8c5.7,0,14.4-2.6,19.5-4.4l10.4,10.4
		c1.2,1.2,2.9,1.9,4.6,1.9h21.3c7.8,8.4,14.7,17.4,15.9,20.8c-2.1,7.2,6,11.3,12.5,14.7c3.3,1.7,10.1,5.2,10.8,6.8
		c-2.2,5-1.6,10.7,1.7,15.8c6.8,10.5,23.7,16.2,32.4,9.9c5.1-3.7,15.6-5.5,21.1-6.1l12.2,7.9c2.4,1.5,5.4,1.3,7.6-0.5l6.2-5.2
		l8.9,5.9l-12,27.8c-0.7,1.7-0.7,3.7,0.1,5.4c0.8,1.7,2.3,2.9,4.1,3.4c12,3.3,24.4,8.8,26.8,11.8c0,1.7,0.6,3.3,1.7,4.6
		c1.2,1.3,3,2.1,4.8,2.1c2.5,0,4,0,5.8-6.5h0.7c0.1-0.8,0-1.7-0.1-2.5c2.5-10.3,5.8-32.7,12.9-80.8c0.1-1,0-2-0.3-3
		c-3.9-11.8-14.6-39.1-29.7-41.3c0.6-3,1.6-6,3.1-8.7l23.4-3.3c2.5-0.4,4.6-2.2,5.3-4.6c0.7-2.4-0.1-5-2-6.7L456.7,423l1.5-5.8
		c7.7,1.7,21,4.1,32.2,4.1c10.1,0,17-2,21-6.3c5,3.1,14.3,20.4,14.2,25.2c-0.5,2.2,0,4.5,1.2,6.4c1.3,1.6,3.2,2.5,5.2,2.5
		c4.2,0,6.5-3.1,10.1-10C545.7,432.6,556.4,409.9,547.7,397.6z M534.2,425.7c-2.3-5.2-5.3-10.1-8.7-14.6c-4.9-6.2-9.6-9.2-14.5-9.2
		c-3.5,0.1-6.7,1.7-8.9,4.4c0,0-1.9,2.2-11.5,2.2c-15,0-35.1-5.2-35.3-5.2c-3.4-0.9-7,1.2-7.9,4.6l-4.1,15.8c-0.6,2.4,0.2,4.9,2,6.5
		l9.9,8.5l-12.4,1.8c-1.9,0.3-3.6,1.4-4.6,3c-2.3,3.7-9.4,16.5-5.1,24.8c1.1,2.1,3.9,5.7,10.2,6.2c3.6,0.2,12.3,14,18.3,31.1
		c-3.3,22.3-7.8,52.2-10.4,69.1c-5.9-3.3-12.1-6-18.5-7.9l11.2-26.1c1.2-2.9,0.2-6.2-2.4-7.9l-17.4-11.6c-2.4-1.6-5.5-1.4-7.7,0.4
		l-6.3,5.2l-10.1-6.5c-1.2-0.8-2.6-1.1-4-1c-2,0.1-19.9,1.6-29.8,8.7c-0.6,0.3-1.2,0.5-1.9,0.4c-4.1,0-9.7-3.2-12.1-6.9
		c-1.4-2.1-0.9-3.2-0.8-3.5c5.4-12.1-8.4-19.2-16.7-23.5c-1.7-0.9-3.9-2-5.4-2.9c-0.1-4.5-3.5-13.4-21.5-32.1c-1.2-1.3-2.9-2-4.7-2
		h-21.4L270.5,446c-1.8-1.8-4.5-2.4-6.9-1.5c-5,1.9-14.6,5-18.5,5c-2.1-0.6-7.4-6.9-10.8-12.9c-0.6-1.1-1.5-1.9-2.6-2.5
		c-14.2-7.6-23.7-12.6-30.3-16c1.5-0.6,2.9-1.2,4.3-1.7c3.3-1.3,4.9-4.9,3.7-8.2l-2.6-7.3l25.8-12c1.4-0.6,2.5-1.7,3.1-3.1
		l14.9-31.5c1.5-3.2,0.2-7-3-8.6c-1.9-0.9-3.8-2-5.6-3.1c1.7-4.9,1.9-15.3-3.6-38.2c4-27.9,4-29,4-29.6c0-2,0-3-12.2-22.7l5.9-15.7
		l25.2,8.1c3.4,1.1,7.1-0.8,8.1-4.2c0.5-1.7,0.3-3.6-0.5-5.2l-10.4-18.5c9.9-3,13.6-5.4,15.2-6.9c1.1-0.3,2.3-0.6,3.4-0.7
		c6.2-1.3,15.7-3.2,19.4-10.6c2.2-4.3,1.9-9.4-0.8-15.1c-4.2-8.9,2.8-23.6,8.3-32.5l14.9,12.4c2.8,2.3,6.9,1.9,9.2-0.9
		c0.7-0.8,1.2-1.8,1.4-2.9l2.6-14.3c11.3-2.9,21.6-8.8,29.7-17.1c10.2-10.5,30.2-18,43-15c-5.6,3.6-11.5,6.6-17.6,9
		c-1.6,0.6-2.9,1.8-3.5,3.4c-1.7,4-3.8,7.8-6.3,11.4c-4.2,0.9-9.7,4.3-13.7,8.4c-5.2,5.3-8,12.6-7.6,20.1c0.3,4.4-6,12.2-10.1,17.4
		c-5.4,6.8-9.3,11.7-6.8,17c0.8,1.7,3,4.6,8.5,4.6c1.1,0,2.2-0.1,3.3-0.3c10.1-1.5,16.7,13.4,18.3,17.3c0.5,25.9,1.7,27.9,2.7,29.7
		c7.8,15.4,23.5,18.6,35.4,18.6c3.7,0,7.5-0.3,11.2-0.8c26.9-3.7,36.2,19.2,36.6,20.1c0.7,1.9,2.3,3.4,4.3,4
		c7.6,1.8,15.4,2.7,23.2,2.6c6.7,0,13.3-0.6,19.9-1.8c1.8-0.4,3.7-0.6,5.5-0.6c1.9,0,2.8,0.3,3,0.2c0.1,1.6-1.9,6.8-7.6,12.7
		c-11.2,11.6-1.1,35.4,9,54.8c0.1,0.2,0.2,0.3,0.2,0.4c-1.7,3.5-5.4,10.6-8.6,16.7c-0.9,1.7-1,3.7-0.3,5.5c0.7,1.8,2.2,3.1,4,3.7
		c6.1,2,23.4,9.2,29.5,17.9C539.6,408.5,537.3,417.7,534.2,425.7z"/>
</g>
</svg>
