<?xml version="1.0" encoding="utf-8"?>
<!-- Generator: Adobe Illustrator 26.0.3, SVG Export Plug-In . SVG Version: 6.00 Build 0)  -->
<svg version="1.1" id="requisito6" xmlns="http://www.w3.org/2000/svg" xmlns:xlink="http://www.w3.org/1999/xlink" x="0px" y="0px"
	 viewBox="0 0 730.2 695.1" style="enable-background:new 0 0 730.2 695.1;" xml:space="preserve">
<style type="text/css">
	.st0{fill:#111820;}
	.st1{enable-background:new    ;}
	.st2{font-family:'Sansation-Bold';}
	.st3{font-size:198.6479px;}
</style>
<path id="Path_24" class="st0" d="M563.3,600.7H166.8c-14.8,0-26.8-12-26.8-26.8v-402c0-14.8,12-26.8,26.8-26.8l0,0H192
	c4.4,0,8,3.6,8,8v10.7c0,13.6,11,24.6,24.6,24.7c0.6,0,1.1,0,1.7-0.1c12.8-0.9,22.9-12.1,22.9-25.5v-9.7c0-4.4,3.6-8,8-8h28.6
	c4.4,0,8,3.6,8,8v10.7c0,13.6,11,24.6,24.6,24.7c0.6,0,1.1,0,1.7-0.1c12.8-0.9,22.9-12.1,22.9-25.5v-9.7c0-4.4,3.6-8,8-8h28.6
	c4.4,0,8,3.6,8,8V164c0,13.6,11,24.6,24.6,24.7c0.6,0,1.1,0,1.7-0.1c12.8-0.9,22.9-12.1,22.9-25.5v-9.7c0-4.4,3.6-8,8-8h28.6
	c4.4,0,8,3.6,8,8v10.7c0,13.6,11,24.6,24.6,24.7c0.6,0,1.1,0,1.7-0.1c12.8-0.9,22.9-12.1,22.9-25.5v-9.7c0-4.4,3.6-8,8-8h25.2
	c14.8,0,26.8,12,26.8,26.8V574C590.1,588.8,578.1,600.6,563.3,600.7z M166.8,152.5c-10.7,0-19.4,8.7-19.4,19.4V574
	c0,10.7,8.7,19.4,19.4,19.4h396.5c10.7,0,19.4-8.7,19.4-19.4V171.9c0-10.7-8.7-19.4-19.4-19.4h-25.2c-0.3,0-0.6,0.3-0.6,0.6v9.7
	c0,17.3-13.1,31.7-29.7,32.9c-8.8,0.6-17.5-2.4-24-8.5c-6.4-6-10.1-14.5-10.1-23.3v-10.7c0-0.3-0.3-0.6-0.6-0.6h-28.6
	c-0.3,0-0.6,0.3-0.6,0.6v9.7c0,17.3-13.1,31.7-29.7,32.9c-8.8,0.6-17.5-2.4-24-8.5c-6.4-6-10.1-14.5-10.1-23.3v-10.7
	c0-0.3-0.3-0.6-0.6-0.6h-28.6c-0.3,0-0.6,0.3-0.6,0.6v9.7c0,17.3-13.1,31.7-29.7,32.9c-8.8,0.6-17.5-2.4-24-8.5
	c-6.4-6-10.1-14.5-10.1-23.3v-10.7c0-0.3-0.3-0.6-0.6-0.6h-28.6c-0.3,0-0.6,0.3-0.6,0.6v9.7c0,17.3-13.1,31.7-29.7,32.9
	c-17.5,1.2-32.8-12-34-29.5c-0.1-0.8-0.1-1.5-0.1-2.3v-10.7c0-0.3-0.3-0.6-0.6-0.6h-25.5L166.8,152.5L166.8,152.5z M563.3,582.9
	H166.8c-4.9,0-8.9-4-8.9-8.9V281.8c0-4.7,3.9-8.6,8.6-8.6l0,0h397.1c4.7,0,8.6,3.9,8.6,8.6V574c0.1,4.9-3.8,8.8-8.7,8.9
	C563.4,582.9,563.4,582.9,563.3,582.9z M166.6,280.5c-0.7,0-1.3,0.6-1.3,1.3V574c0,0.9,0.7,1.6,1.6,1.6l0,0h396.5
	c0.9,0,1.6-0.7,1.6-1.6l0,0V281.8c0-0.7-0.6-1.3-1.3-1.3H166.6z"/>
<g id="Group_13">
	<path id="Path_25" class="st0" d="M411.9,185c-11.7,0-21.2-9.5-21.2-21.2v-48.2c0-11.7,9.5-21.2,21.2-21.2s21.2,9.5,21.2,21.2v48.2
		C433.1,175.5,423.6,185,411.9,185z M411.9,101.7c-7.7,0-13.9,6.2-13.9,13.8c0,0,0,0,0,0.1v48.2c0,7.7,6.2,13.9,13.9,13.9
		c7.7,0,13.9-6.2,13.9-13.9v-48.2C425.8,107.9,419.6,101.7,411.9,101.7L411.9,101.7z"/>
	<path id="Path_26" class="st0" d="M505.6,185c-11.7,0-21.2-9.5-21.2-21.2v-48.2c0-11.7,9.5-21.2,21.2-21.2
		c11.7,0,21.2,9.5,21.2,21.2v48.2C526.8,175.5,517.3,185,505.6,185z M505.6,101.7c-7.7,0-13.9,6.2-13.9,13.8c0,0,0,0,0,0.1v48.2
		c0,7.7,6.2,13.9,13.9,13.9s13.9-6.2,13.9-13.9l0,0v-48.2C519.5,107.9,513.3,101.7,505.6,101.7L505.6,101.7z"/>
	<path id="Path_27" class="st0" d="M318.2,185c-11.7,0-21.2-9.5-21.2-21.2v-48.2c0-11.7,9.5-21.2,21.2-21.2s21.2,9.5,21.2,21.2v48.2
		C339.4,175.5,329.9,185,318.2,185z M318.2,101.7c-7.7,0-13.9,6.2-13.9,13.8c0,0,0,0,0,0.1v48.2c0,7.7,6.2,13.9,13.9,13.9
		c7.7,0,13.9-6.2,13.9-13.9v-48.2C332.1,107.9,325.9,101.7,318.2,101.7L318.2,101.7z"/>
	<path id="Path_28" class="st0" d="M224.5,185c-11.7,0-21.2-9.5-21.2-21.2v-48.2c0-11.7,9.5-21.2,21.2-21.2s21.2,9.5,21.2,21.2v48.2
		C245.7,175.5,236.2,185,224.5,185z M224.5,101.7c-7.7,0-13.9,6.2-13.9,13.8c0,0,0,0,0,0.1v48.2c0,7.7,6.2,13.9,13.9,13.9
		s13.9-6.2,13.9-13.9v-48.2C238.4,107.9,232.2,101.7,224.5,101.7L224.5,101.7z"/>
</g>
<g class="st1">
	<path d="M296.8,358.6c-1.3,0-1.8-0.6-1.8-1.8v-33.2c0-1.3,0.6-1.8,1.8-1.8h8.3c1.1,0,1.7,0.4,2.4,1.5l4.6,8.4
		c0.4,0.6,0.5,0.9,0.9,0.9h0.5c0.4,0,0.6-0.3,0.9-0.9l4.6-8.4c0.6-1.1,1.3-1.5,2.4-1.5h8.3c1.3,0,1.8,0.6,1.8,1.8v33.2
		c0,1.3-0.6,1.8-1.8,1.8h-7.9c-1.3,0-1.8-0.6-1.8-1.8v-18.1l-3,5.6c-0.6,1.2-1.4,1.6-2.7,1.6H312c-1.3,0-2.1-0.5-2.7-1.6l-3-5.6
		v18.1c0,1.3-0.6,1.8-1.8,1.8H296.8z"/>
	<path d="M347.1,358.6h-7.5c-1.3,0-1.8-0.6-1.8-1.8v-13.5c0-2.1,0.6-4.6,2-8.2l4.5-11.6c0.4-1.2,1.2-1.7,2.6-1.7h13.8
		c1.3,0,2.2,0.5,2.6,1.7l4.5,11.6c1.4,3.6,2,6.2,2,8.2v13.5c0,1.3-0.6,1.8-1.8,1.8H360c-1.4,0-2-0.6-2-1.8v-7.2h-9.1v7.2
		C348.9,358,348.3,358.6,347.1,358.6z M349.4,340.2h8.1l-2.4-7.8c-0.3-0.6-0.6-0.9-1-0.9h-1.3c-0.4,0-0.7,0.3-1,0.9L349.4,340.2z"/>
	<path d="M385,358.6c-1.3,0-1.8-0.6-1.8-1.8v-6.6l-7.8-10.5c-1.6-2.1-1.9-3.1-1.9-6.3v-9.8c0-1.3,0.6-1.8,1.8-1.8h7.9
		c1.3,0,1.8,0.6,1.8,1.8v8.4c0,0.7,0,1.4,0.5,2.2l2.4,3.7c0.4,0.6,0.7,0.9,1.2,0.9h0.5c0.6,0,0.9-0.3,1.2-0.9l2.4-3.7
		c0.5-0.7,0.5-1.4,0.5-2.2v-8.4c0-1.3,0.6-1.8,1.8-1.8h7.6c1.3,0,1.8,0.6,1.8,1.8v9.8c0,3.2-0.4,4.2-1.9,6.3l-7.8,10.6v6.5
		c0,1.3-0.6,1.8-1.8,1.8H385z"/>
	<path d="M426.1,359.3c-12.8,0-16-4.2-16-10.5v-17.5c0-6.3,3.1-10.5,16-10.5c12.8,0,15.9,4.3,15.9,10.5v17.5
		C442,355.1,439,359.3,426.1,359.3z M426.1,349.4c3.7,0,4.3-1,4.3-2.4v-13.8c0-1.3-0.6-2.4-4.3-2.4c-3.7,0-4.3,1-4.3,2.4V347
		C421.8,348.4,422.4,349.4,426.1,349.4z"/>
</g>
<text transform="matrix(1 0 0 1 241.3862 532.2861)" class="st2 st3">20</text>
</svg>
