<?xml version="1.0" encoding="utf-8"?>
<!-- Generator: Adobe Illustrator 26.0.3, SVG Export Plug-In . SVG Version: 6.00 Build 0)  -->
<svg version="1.1" id="requisito7" xmlns="http://www.w3.org/2000/svg" xmlns:xlink="http://www.w3.org/1999/xlink" x="0px" y="0px"
	 viewBox="0 0 730.2 695.1" style="enable-background:new 0 0 730.2 695.1;" xml:space="preserve">
<style type="text/css">
	.st0{fill:#FFFFFF;fill-opacity:0;}
	.st1{fill:#111820;}
	.st2{enable-background:new    ;}
</style>
<rect id="Rectangle_11" class="st0" width="730.2" height="695.1"/>
<g id="Group_18">
	<g id="Group_17">
		<path id="Path_34" class="st1" d="M397.2,331c-1.4,0-2.7,0.4-3.8,1.2c-31.7,23.1-55.5-1.4-60.2-1.4l0,0
			c-6.6,1.2-12.8,3.8-18.4,7.5c-17.5,11.1-26.6,33-26.8,46.9v0.5c0.1,1.4,0.7,2.8,1.6,3.8l0,0c49.9,49.9,115.4,39.1,150.8,0.9
			c1.2-1.4,1.9-3.2,1.7-5C437.9,344.5,405.3,331,397.2,331z M410.2,398.3v-22.9c0-8.5-12.8-8.5-12.8,0v29c-20.6,8-43.4,8-64,0v-29
			c0-8.5-12.8-8.5-12.8,0v22.9c-7.1-4.1-13.7-9.2-19.5-15.1c3.2-20.8,15.1-33.9,30.9-39c21.5,14.5,45.8,13.8,66.3,0.2
			c16,5.3,27.7,18.6,30.6,39.5C423.4,389.5,417.1,394.4,410.2,398.3z M624.1,557.8l-8.1-25.1c-1.1-3.4-4.7-5.2-8-4.1c0,0,0,0-0.1,0
			l-4.1,1.3c20.6-136.2,40.7-105.6-65.5-208.1V154.4c0-3.5-2.9-6.4-6.4-6.4H198.4c-3.5,0-6.4,2.9-6.4,6.4v167.4
			c-105.7,102-86.3,71.3-65.5,208.1c-12.4-4-10.5-2.4-20.3,27.9c-2.6,8.1,9.6,12,12.2,3.9l6.1-19l104.4,33.7l-14,43.2
			c-1.1,3.4,0.8,7,4.2,8c3.3,1,6.9-0.8,8-4l4.8-14.8h266.6c4.5,14,4.9,19.2,10.9,19.2c3.6,0,6.4-2.9,6.4-6.5c0-0.6-0.1-1.3-0.3-1.9
			l-14-43.2l104.4-33.7l6.2,19c1,3.3,4.5,5.2,7.9,4.2c3.3-1,5.2-4.5,4.2-7.9C624.1,557.9,624.1,557.9,624.1,557.8L624.1,557.8z
			 M605.9,415.3c6,20.2-17.1,110.7-15.2,118.8l-76.3,24.7c-8.4-16.1-31.5-48.2-33.1-54.9c-2-8.5-1.5-72.1-4.1-80.5
			c-10.3-34.2-4.4-46.9,0-51.5c3.6-3.5,8.8-4.9,13.7-3.6c19.2,4.9,13,40.8,22.2,63.9c1.3,3.2,14.7,21.7,22.4,14.9
			c1.2-1.1,2-2.6,2.1-4.2c1.1-2.3,0.7,3.6,0.7-103.4C561.9,361.7,602.7,399.4,605.9,415.3z M125.5,412c6.6-17.4,49.7-56.8,66.5-72.6
			c0,106.9-0.4,101.1,0.7,103.4c0.3,3.5,3.3,6.1,6.8,5.8c0.1,0,0.2,0,0.3,0c6-0.7,16-13,17.4-16.5c9.2-23.1,3-59,22.2-63.9
			c3.8-1,9.6-0.6,13.6,3.6c4.4,4.6,10.2,17.3,0,51.5c-2.9,9.8-1.4,75.6-4.9,82.6c-5,10.8-24.2,37.3-32.2,52.8L139.6,534
			C141.6,525.2,117,434.4,125.5,412z M494.3,596H236c9.9-30.5,11.4-27-7.7-33.2c9.8-17.8,30.8-45.8,33.2-56c2.3-10,2.1-73,3.8-79.8
			c18.1-60.1-8.3-76.5-29.1-71.2c-29.7,7.6-22.3,49.5-30.7,71.3c0-111,0.4-103.7-0.6-105.9V160.8h320.6v160.4
			c-1,2.2-0.6-5.1-0.6,105.9c-8.5-22.1-1.1-63.6-30.7-71.3c-17-4.4-48.5,6.4-29.1,71.2c1.8,6.9,1.5,69.7,3.9,79.8
			c2.4,10,23.5,38.4,33.2,55.9C482.4,569.2,484.7,566.3,494.3,596z M197.2,600.7c-10.4-5.9-1.5-21.6,8.9-15.7
			S207.6,606.6,197.2,600.7L197.2,600.7z M533,600.7c-10.4,5.9-19.3-9.8-8.9-15.7S543.4,594.8,533,600.7z M307.2,500h51.2
			c8.5,0,8.5,12.8,0,12.8h-51.2C298.7,512.8,298.7,500,307.2,500z M377.6,512.8c-8.5,0-8.5-12.8,0-12.8H416c8.5,0,8.5,12.8,0,12.8
			H377.6z M422.4,480.8H307.2c-3.5,0-6.4-2.9-6.4-6.4s2.9-6.4,6.4-6.4l0,0h115.2C430.9,468,430.9,480.8,422.4,480.8z M422.4,544.8
			H307.2c-8.5,0-8.5-12.8,0-12.8h115.2C430.9,532,430.9,544.8,422.4,544.8z M321.6,299.6c5.7,19.7,23.6,36.1,44.7,36.1
			c15.9,0,36.2-13.6,42.8-36.1c8.2-8.5,10.2-23.7,3.5-30c15.4-68-109.6-68.4-94.4,0.1C311,276.3,313.9,291.6,321.6,299.6z
			 M399.1,291.4c-1,0.9-1.7,2-2,3.3c-3.6,14.5-15.9,27.3-32.3,28.2c-10.7,0.2-26.9-10.4-31.3-28.2c-0.3-1.3-1-2.4-2-3.3
			c-3.7-3.2-5.2-9.2-4.5-12.4c2.3-0.5,4.1-2.2,4.8-4.4c7.1-23.7,14.2-7.1,35.6-8.3c18.1-1,24.8-13.8,31.4,8.3
			c0.7,2.2,2.5,3.9,4.8,4.4C404.3,282.2,402.8,288.1,399.1,291.4z M366,231.2c16.5,0.1,29.7,5.4,33.9,21.4c-8.1-6-16.1-3.4-21.9-1.5
			c-25.1,8.1-31.9-9.9-47.3,1.5C334.9,236,348.9,231.3,366,231.2z"/>
	</g>
</g>
<g class="st2">
	<path d="M184.3,129.3c-1.7,0-2.4-0.7-2.4-2.4v-8c0-1.7,0.7-2.4,2.4-2.4h7.4V94.3h-6.1c-1.7,0-2.4-0.7-2.4-2.4v-8
		c0-1.7,0.7-2.4,2.4-2.4h19.3c1.7,0,2.4,0.7,2.4,2.4v32.6h6.4c1.7,0,2.4,0.7,2.4,2.4v8c0,1.7-0.7,2.4-2.4,2.4H184.3z"/>
	<path d="M224.6,129.3c-1.7,0-2.4-0.7-2.4-2.4v-7.8c0-1.7,0.7-2.4,2.4-2.4h17.1c1.1,0,1.8-0.5,1.8-1.5v-2.6c0-1.1-0.7-1.5-1.8-1.5
		h-16.5c-1.7,0-2.4-0.7-2.4-2.4V83.9c0-1.7,0.7-2.4,2.4-2.4h28.6c1.7,0,2.4,0.7,2.4,2.4v7.9c0,1.7-0.7,2.4-2.4,2.4H238v4.3h9.1
		c7.2,0,11.6,3.5,11.6,10.6v9.2c0,6.8-5,11-12.9,11H224.6z"/>
	<path d="M291.9,129.3h-9.8c-1.7,0-2.4-0.7-2.4-2.4v-17.5c0-2.7,0.8-6,2.6-10.6l5.8-15.1c0.5-1.5,1.6-2.2,3.4-2.2h17.9
		c1.7,0,2.8,0.7,3.3,2.2l5.8,15.1c1.8,4.6,2.6,8,2.6,10.6v17.5c0,1.7-0.7,2.4-2.4,2.4h-10c-1.8,0-2.6-0.7-2.6-2.4v-9.3h-11.8v9.3
		C294.3,128.5,293.5,129.3,291.9,129.3z M294.9,105.5h10.4l-3.1-10.1c-0.3-0.8-0.7-1.1-1.3-1.1h-1.7c-0.5,0-0.9,0.3-1.3,1.1
		L294.9,105.5z"/>
	<path d="M344.8,129.3c-11.2,0-16.3-4.3-16.3-13.5V95c0-9.2,5.2-13.5,16.3-13.5h16.6c1.7,0,2.4,0.7,2.4,2.4v8c0,1.7-0.7,2.4-2.4,2.4
		h-13.8c-2.8,0-4.1,1.1-4.1,3.3v15.9c0,2.3,1,3.3,3.1,3.3h6.4v-10.4c0-1.7,0.7-2.4,2.4-2.4h10.3c1.7,0,2.4,0.7,2.4,2.4v20.5
		c0,1.7-0.7,2.4-2.4,2.4H344.8z"/>
	<path d="M396.1,130.3c-16.6,0-20.7-5.4-20.7-13.5V94.1c0-8.1,4.1-13.6,20.7-13.6s20.6,5.5,20.6,13.6v22.6
		C416.7,124.8,412.7,130.3,396.1,130.3z M396.1,117.5c4.8,0,5.6-1.3,5.6-3.1V96.5c0-1.7-0.7-3.1-5.6-3.1c-4.8,0-5.6,1.3-5.6,3.1
		v17.9C390.6,116.1,391.4,117.5,396.1,117.5z"/>
	<path d="M426.3,129.3c-1.7,0-2.4-0.7-2.4-2.4v-7.8c0-1.7,0.7-2.4,2.4-2.4h17.9c1.1,0,1.7-0.9,1.7-1.9c0-1.5-0.6-2.1-1.7-2.3
		l-10-1.4c-6.2-0.9-10.3-3.6-10.3-11v-7c0-7.6,5.1-11.7,13.7-11.7h18.6c1.7,0,2.4,0.7,2.4,2.4v7.9c0,1.7-0.7,2.4-2.4,2.4h-15.5
		c-1.1,0-1.8,0.8-1.8,2s0.7,2,1.8,2.1l9.9,1.3c6.2,0.9,10.4,3.6,10.4,11v7c0,7.6-5.2,11.7-13.7,11.7H426.3z"/>
	<path d="M479.5,129.3c-1.7,0-2.4-0.7-2.4-2.4V94.3h-9.8c-1.7,0-2.4-0.7-2.4-2.4v-8c0-1.7,0.7-2.4,2.4-2.4h35.1
		c1.7,0,2.4,0.7,2.4,2.4v8c0,1.7-0.7,2.4-2.4,2.4h-9.8v32.6c0,1.7-0.7,2.4-2.4,2.4H479.5z"/>
	<path d="M530.8,130.3c-16.6,0-20.7-5.4-20.7-13.5V94.1c0-8.1,4.1-13.6,20.7-13.6s20.6,5.5,20.6,13.6v22.6
		C551.4,124.8,547.4,130.3,530.8,130.3z M530.8,117.5c4.8,0,5.6-1.3,5.6-3.1V96.5c0-1.7-0.7-3.1-5.6-3.1c-4.8,0-5.6,1.3-5.6,3.1
		v17.9C525.2,116.1,526,117.5,530.8,117.5z"/>
</g>
</svg>
