<svg id="requisito4" xmlns="http://www.w3.org/2000/svg" width="730.2" height="695.1" viewBox="0 0 730.2 695.1">
  <rect id="Rectangle_4" data-name="Rectangle 4" width="730.2" height="695.1" fill="#fff" opacity="0"/>
  <g id="Group_11" data-name="Group 11">
    <path id="Path_14" data-name="Path 14" d="M466,576H156.3a20.784,20.784,0,0,1-20.8-20.8V139.8A20.784,20.784,0,0,1,156.3,119H391.7v67a22.961,22.961,0,0,0,22.9,22.9h72.2v65.2H476.2V219.5H414.6A33.5,33.5,0,0,1,381.1,186V129.7H156.3a10.243,10.243,0,0,0-10.2,10.2V555.3a10.243,10.243,0,0,0,10.2,10.2H466a10.243,10.243,0,0,0,10.2-10.2V458.5h10.6v96.8A20.763,20.763,0,0,1,466,576Zm8.2-383.8H414.5a6.231,6.231,0,0,1-6.2-6.2V130.2ZM419,181.6h28.5L419,154.7Z" fill="#111820"/>
    <path id="Path_15" data-name="Path 15" d="M617.8,301.7l-81.1-75.8L561.8,199a36.117,36.117,0,0,1,51.1-1.8l28.3,26.4a36.081,36.081,0,0,1,1.7,51.1Zm-66.2-76.3,65.6,61.3,17.9-19.2a25.574,25.574,0,0,0-1.2-36.1L605.6,205a25.4,25.4,0,0,0-18.3-6.9,25.134,25.134,0,0,0-17.8,8.1Z" fill="#111820"/>
    <path id="Path_16" data-name="Path 16" d="M331.6,526.7l25-108L536.7,225.9l81.1,75.8L437.7,494.5Zm34.7-102.8L346,511.2l85.9-26,171-183-65.6-61.3Zm8.8,69.3-2.1-3.7a17.258,17.258,0,0,0-3-3.8,19.438,19.438,0,0,0-4-2.8l-3.9-1.8,12.2-52.5,52.4,48.9Zm-.8-17.6a21.723,21.723,0,0,1,2.9,2.4,34.466,34.466,0,0,1,2.6,2.8l26.2-8-25.5-23.9Zm59.4-17.9a13.465,13.465,0,0,1-9.5-3.8,14.018,14.018,0,0,1-4.4-10.2,13.545,13.545,0,0,1,3.8-9.5L551.3,297.5a14.133,14.133,0,0,1,19.8-.7h0a13.743,13.743,0,0,1,4.4,9.7v.5a13.465,13.465,0,0,1-3.8,9.5L443.9,453.2a13.743,13.743,0,0,1-9.7,4.4A1.087,1.087,0,0,1,433.7,457.7Zm-3.4-14a3.409,3.409,0,0,0,3.5,3.4,3.36,3.36,0,0,0,2.4-1.1L563.9,309.3a3.168,3.168,0,0,0,.9-2.3v-.1a3.4,3.4,0,0,0-5.9-2.2L431.2,441.4A3.337,3.337,0,0,0,430.3,443.7Zm-22.8-10.5a13.465,13.465,0,0,1-9.5-3.8,13.743,13.743,0,0,1-4.4-9.7v-.5a13.465,13.465,0,0,1,3.8-9.5L525,273.1a13.953,13.953,0,0,1,24.2,9.5,13.545,13.545,0,0,1-3.8,9.5h0L417.7,428.8a13.743,13.743,0,0,1-9.7,4.4Zm-3.4-13.9v.1a3.36,3.36,0,0,0,1.1,2.4,3.153,3.153,0,0,0,2.4.9,3.36,3.36,0,0,0,2.4-1.1L537.7,284.9a3.523,3.523,0,0,0,.9-2.3,3.581,3.581,0,0,0-1.1-2.5,3.354,3.354,0,0,0-4.8.2L405,417A3.641,3.641,0,0,0,404.1,419.3Z" fill="#111820"/>
    <rect id="Rectangle_5" data-name="Rectangle 5" width="147.4" height="27.3" transform="translate(191.4 203.2)" fill="#111820"/>
    <rect id="Rectangle_6" data-name="Rectangle 6" width="147.4" height="27.3" transform="translate(191.4 285.6)" fill="#111820"/>
    <rect id="Rectangle_7" data-name="Rectangle 7" width="147.4" height="27.3" transform="translate(191.4 367.9)" fill="#111820"/>
    <rect id="Rectangle_8" data-name="Rectangle 8" width="67.1" height="27.3" transform="translate(191.4 450.2)" fill="#111820"/>
    <path id="Path_17" data-name="Path 17" d="M564.8,301.2a8.7,8.7,0,0,1,.4,12.3L437.5,450.1a8.7,8.7,0,1,1-12.7-11.9L552.5,301.5A8.785,8.785,0,0,1,564.8,301.2Z" fill="#111820"/>
    <path id="Path_18" data-name="Path 18" d="M539,289,411.4,425.6a8.7,8.7,0,0,1-12.7-11.9L526.4,277a8.7,8.7,0,0,1,12.3-.4A8.91,8.91,0,0,1,539,289Z" fill="#111820"/>
    <path id="Path_19" data-name="Path 19" d="M377.6,486.9a20.882,20.882,0,0,0-4.1-5.1,21.3,21.3,0,0,0-5.3-3.7l9.1-39.4,38.9,36.4Z" fill="#111820"/>
    <path id="Path_20" data-name="Path 20" d="M413.7,142.4l47.2,44.4H414.6a.9.9,0,0,1-.9-.9V142.4Z" fill="#111820"/>
  </g>
</svg>
