<svg id="requisito5" xmlns="http://www.w3.org/2000/svg" width="730.2" height="695.1" viewBox="0 0 730.2 695.1">
  <g id="Group_12" data-name="Group 12">
    <path id="Path_21" data-name="Path 21" d="M365.1,603.7c-141.3,0-256.2-114.9-256.2-256.2S223.8,91.4,365.1,91.4,621.3,206.3,621.3,347.6,506.4,603.7,365.1,603.7Zm0-500.3c-134.6,0-244.2,109.5-244.2,244.2S230.4,591.8,365.1,591.8c134.6,0,244.2-109.5,244.2-244.2S499.7,103.4,365.1,103.4Zm0,469.8c-124.4,0-225.6-101.2-225.6-225.6S240.7,122,365.1,122,590.7,223.2,590.7,347.6,489.5,573.2,365.1,573.2Zm0-439.3c-117.8,0-213.6,95.8-213.6,213.6s95.8,213.6,213.6,213.6,213.6-95.8,213.6-213.6S482.9,133.9,365.1,133.9Z" fill="#111820"/>
    <path id="Path_22" data-name="Path 22" d="M365.1,506.6c-87.7,0-159.1-71.4-159.1-159.1s71.4-159.1,159.1-159.1,159.1,71.4,159.1,159.1S452.8,506.6,365.1,506.6Zm0-306.1c-81.1,0-147.1,66-147.1,147.1s66,147.1,147.1,147.1,147.1-66,147.1-147.1S446.2,200.5,365.1,200.5Z" fill="#111820"/>
    <path id="Path_23" data-name="Path 23" d="M401.5,277.5c10.2,9,10.5,23.2,10.5,23.6a12.229,12.229,0,0,0,12,12.3h.2a12.208,12.208,0,0,0,12.2-12c0-1,.1-25.2-18.4-41.9-10.3-9.3-24-14.3-40.7-14.8V231.3a12.2,12.2,0,0,0-24.4,0v15.3c-32.2,5.6-46,20.7-51.9,32.7-8.9,18.2-4.4,38.2,1,47.7,2.6,5.4,15.2,26.6,50.9,28.8v66.6c-9.3-.8-16.7-3.5-22-8.2-10.2-9-10.5-23.2-10.5-23.6a12.229,12.229,0,0,0-12-12.3h-.2a12.208,12.208,0,0,0-12.2,12c0,1-.1,25.2,18.4,41.9,9.9,8.9,22.8,13.8,38.5,14.7v19.3a12.2,12.2,0,1,0,24.4,0V445.5c33.8-5.3,48.1-20.7,54.1-33,8.9-18.2,4.4-38.2-1-47.7-2.7-5.5-15.7-27.5-53.1-28.9V269.3C387.6,269.6,395.8,272.4,401.5,277.5Zm-77.3,39.2a7.571,7.571,0,0,0-.9-1.8c-1.9-3.1-5.4-14.8-.4-25,5.2-10.5,17.7-15.9,29.9-18.5v59.7C330.4,329.3,324.4,317.1,324.2,316.7Zm84,58.2a7.571,7.571,0,0,0,.9,1.8c1.9,3.1,5.4,14.8.4,25-5.5,11.2-19.3,16.5-32.1,19V360.3C401.7,361.5,408,374.5,408.2,374.9Z" fill="#111820"/>
  </g>
  <rect id="Rectangle_9" data-name="Rectangle 9" width="730.2" height="695.1" fill="#fff" opacity="0"/>
</svg>
