<svg id="requisito3" xmlns="http://www.w3.org/2000/svg" width="730.2" height="695.1" viewBox="0 0 730.2 695.1">
  <rect id="Rectangle_3" data-name="Rectangle 3" width="730.2" height="695.1" fill="#fff" opacity="0"/>
  <g id="Group_10" data-name="Group 10">
    <path id="Path_10" data-name="Path 10" d="M230.7,341.4a8.075,8.075,0,0,0,6,5.3l.5.1,125.2,43.1.3.1.3.1.4.1.3.1H366l.4-.1.3-.1.4-.1.3-.1.3-.1,126.7-43.6.5-.2.4-.2a1.466,1.466,0,0,1,.4-.2,1.466,1.466,0,0,1,.4-.2s.2-.2.3-.2c0,0,.2-.2.3-.2l.3-.2.1-.1.2-.2.2-.2.3-.3.2-.2.1-.1c.1-.1.1-.2.2-.2l.3-.4c.1-.1.1-.2.2-.3a1.438,1.438,0,0,1,.2-.3s.1-.3.2-.3l.2-.4.1-.2.2-.5v0a2.268,2.268,0,0,1,.1-.4l.1-.5a2.268,2.268,0,0,1,.1-.4l.1-.4v-2l-.1-.4a7706770551993.847,7706770551993.847,0,0,0-.2-.8l-.1-.4-.2-.5-.2-.4a1.466,1.466,0,0,1-.2-.4s-.1-.3-.2-.3a1.466,1.466,0,0,1-.2-.4s-.2-.2-.2-.3l-.2-.3s-.2-.3-.3-.3l-.3-.3-.3-.3-.3-.3c-.1-.1-.2-.1-.2-.2h-.1c-.1-.1-.2-.1-.3-.2s-.2-.1-.3-.2l-.4-.2-.4-.2-.2-.1-.4-.2-.3-.1L367.9,287.1a8.423,8.423,0,0,0-2.7-.4,12.59,12.59,0,0,0-2.7.4L237.3,330.2l-.5.1a8.018,8.018,0,0,0-6,5.4,7.457,7.457,0,0,0-.4,2.6v.3A6.035,6.035,0,0,0,230.7,341.4ZM365.1,309l86.3,29.7-86.3,29.7-86.2-29.7Z" fill="#111820"/>
    <path id="Path_11" data-name="Path 11" d="M176.6,410.5l.6.2,185.2,63.8a1.007,1.007,0,0,0,.3.1l.3.1.3.1.4.1.4.1h2l.4-.1.3-.1.3-.1.4-.1.2-.1,187-64.4c.1,0,.2-.1.3-.1l.5-.2.2-.1a.349.349,0,0,0,.2-.1l.3-.2.4-.2c.1-.1.3-.2.4-.3l.1-.1.1-.1.3-.2c.1-.1.2-.1.2-.2l-.2.3.5-.5-.2.2.2-.2.3-.3c.2-.3.5-.6.7-.9l-.1.2a3.329,3.329,0,0,0,.3-.6l-.1.1.1-.2c.1-.1.1-.2.2-.4,0-.1.1-.2.1-.3l.1-.3.2-.5.1-.4.1-.4.1-.4.1-.4v-2l-.1-.4a2.269,2.269,0,0,1-.1-.4v-.1a.367.367,0,0,0-.1-.3V400c0-.1-.1-.2-.1-.3l-.1-.4-.2-.4-.1-.3s-.1-.3-.2-.3a4917315553568,4917315553568,0,0,1-.4-.8s-.2-.2-.2-.3c0,0-.2-.2-.2-.3l-.3-.3-.3-.3-.2-.2-.1-.1-.2-.2s-.2-.2-.3-.2c0,0-.2-.2-.3-.2l-.4-.3a1.438,1.438,0,0,1-.3-.2l-.3-.2-.3-.2-.4-.2L494.9,371a8.025,8.025,0,0,0-3-.6,8.329,8.329,0,0,0-7.7,5.3,8.572,8.572,0,0,0,.1,6.3,7.914,7.914,0,0,0,4.5,4.3l26.8,10.4-.2,9.2L366.6,457.2h-3.2L214.7,406l-.2-9.2,26.7-10.4a7.8,7.8,0,0,0,4.5-4.4,8.208,8.208,0,0,0-10.6-10.9l-58.5,22.8-.6.2a8.7,8.7,0,0,0-5.9,5.3,7.045,7.045,0,0,0-.4,2.9,7.173,7.173,0,0,0,.6,2.9A9.021,9.021,0,0,0,176.6,410.5Z" fill="#111820"/>
    <path id="Path_12" data-name="Path 12" d="M626.8,482.2v-.6l-.1-.4-.1-.4-.1-.4-.1-.4-.2-.4-.2-.3-.1-.1a9.022,9.022,0,0,0-1.4-2,11.509,11.509,0,0,0-1.7-1.4,1.424,1.424,0,0,0-.4-.2l-.4-.2-.4-.2-66.7-27.5a8.533,8.533,0,0,0-3.1-.6,8.2,8.2,0,0,0-3.1,15.8l34.6,14.3-.3,9.1L366.5,560.9h-3.2L149,487.1l-.1-9.2L189,463.1a8.212,8.212,0,0,0,4.8-10.6,8.321,8.321,0,0,0-7.7-5.4,9.818,9.818,0,0,0-2.9.5l-72.8,26.9-.7.2a8.3,8.3,0,0,0-6.2,5.4,6.578,6.578,0,0,0-.4,2.8,9.291,9.291,0,0,0,.5,2.9,8.2,8.2,0,0,0,6.3,5.2l.8.2,251.5,86.6h0a2.269,2.269,0,0,0,.4.1,1.035,1.035,0,0,0,.4.1l.2.1.4.1.4.1h1.8l.4-.1.3-.1.3-.1.3-.1.4-.1L621,490.5l.3-.1c.3-.1.7-.3,1-.4l.1-.1.9-.6.1-.1c.1-.1.3-.2.4-.3h0c.1-.1.3-.2.4-.4l.1-.1.3-.3.1-.1a1.381,1.381,0,0,0,.3-.4l.1-.2c.1-.1.2-.3.3-.4l.1-.1a.758.758,0,0,0,.2-.4v-.1c.1-.2.2-.3.2-.4v-.1l.2-.4.1-.4.1-.4.1-.4v-.2l.1-.4v-1.3Z" fill="#111820"/>
    <g id="B1MYSl_2_">
      <g id="Group_9" data-name="Group 9">
        <path id="Path_13" data-name="Path 13" d="M307.5,266.5a47.765,47.765,0,0,1-7-2.2c-8-4-11.7-12.8-9.2-21.8,2.9-10.3,9.9-16.6,20-19.6,2.3-.7,4.7-1,6.9-1.9,6.4-2.6,9.5-7.6,9.8-14.3.2-5.4.1-10.7.1-16.1,0-14.7.1-29.5,0-44.2-.1-7.1,5.9-12.7,11.3-13.7,27.3-5,54.6-10.2,81.9-15.4a15.087,15.087,0,0,1,4.2-.5c3.3.3,5.5,2.8,5.7,6.3.1,3.4,0,6.7,0,10.1v92.1c0,12.7-10,24.6-22.5,26.9-5.8,1.1-11.3.6-16.3-2.7a18.133,18.133,0,0,1-7.9-18.7c2.1-11.5,11.2-20.3,23.3-22.5,8.9-1.6,14-7.4,14.1-16.5.1-12.1,0-24.2,0-36.3a4.592,4.592,0,0,0-.1-1c-28.1,5.3-56.1,10.6-84.3,15.9v1.8c0,22.3-.2,44.6.1,66.9.1,12.2-10.3,25.2-24,27.1-.4.1-.8.2-1.3.3Z" fill="#111820"/>
      </g>
    </g>
  </g>
</svg>
