<svg id="requisito2" xmlns="http://www.w3.org/2000/svg" width="730.2" height="695.1" viewBox="0 0 730.2 695.1">
  <rect id="Rectangle_2" data-name="Rectangle 2" width="730.2" height="695.1" fill="#fff" opacity="0"/>
  <path id="Path_62" data-name="Path 62" d="M8.473-43.836V-49.8q8.43-.821,11.759-2.745t4.972-9.1h6.139V0h-8.3V-43.836Zm66.662-18.33q10.375,0,14.461,5.382A18.154,18.154,0,0,1,93.681-45.7h-7.7a14.19,14.19,0,0,0-2.2-5.75q-2.81-3.891-8.517-3.891-6.528,0-10.375,6.031T60.61-32.034a16.919,16.919,0,0,1,6.744-5.879,19.446,19.446,0,0,1,8.3-1.729,20.192,20.192,0,0,1,13.575,4.972q5.793,4.972,5.793,14.828a22.494,22.494,0,0,1-5.49,14.936Q84.041,1.6,73.882,1.6a20.07,20.07,0,0,1-15-6.593q-6.312-6.593-6.312-22.2,0-11.543,2.81-19.584Q60.783-62.166,75.135-62.166ZM74.573-5.317q6.139,0,9.187-4.129a15.962,15.962,0,0,0,3.048-9.749,16.666,16.666,0,0,0-2.724-9.057q-2.724-4.3-9.9-4.3a12.907,12.907,0,0,0-8.8,3.329Q61.6-25.9,61.6-19.195a14.626,14.626,0,0,0,3.437,9.878Q68.478-5.317,74.573-5.317Zm52.18-23.345h21.7v8h-21.7ZM179.927,0a36.1,36.1,0,0,1,3.307-13.92q2.875-5.923,11.218-10.765l8.3-4.8a39.078,39.078,0,0,0,7.825-5.534,11.368,11.368,0,0,0,3.545-8.214,11.466,11.466,0,0,0-3.242-8.581,11.819,11.819,0,0,0-8.646-3.177q-8,0-11.067,6.052a21.668,21.668,0,0,0-1.816,8.992H181.44q.13-8.084,2.983-13.185,5.058-8.992,17.854-8.992,10.635,0,15.542,5.75a19.236,19.236,0,0,1,4.907,12.8,17.4,17.4,0,0,1-5.231,12.71q-3.026,3.069-10.851,7.436l-5.923,3.286a38.362,38.362,0,0,0-6.658,4.453,16.22,16.22,0,0,0-5.447,8.344h33.807V0Zm75.741-21.918V-49.975L235.825-21.918ZM255.8,0V-15.131H228.649v-7.609l28.36-39.34h6.571v40.162H272.7v6.787h-9.122V0Z" transform="translate(242.46 119.271)" fill="#111820"/>
  <g id="Group_4" data-name="Group 4">
    <g id="Group_2" data-name="Group 2">
      <path id="Path_2" data-name="Path 2" d="M422.8,488.9h-2a11.878,11.878,0,0,1-7.8-3,11.028,11.028,0,0,1-2.6-3.5,11.028,11.028,0,0,1-2.6,3.5,11.684,11.684,0,0,1-7.8,3h-2a11.608,11.608,0,0,1-11.6-11.6V407.5a9.922,9.922,0,0,1-7.5,3.5h-.2a9.9,9.9,0,0,1-9.9-9.8V336.8a9.816,9.816,0,0,1,9.8-9.8H442a9.816,9.816,0,0,1,9.8,9.8v64.4a9.754,9.754,0,0,1-7.9,9.6,13.552,13.552,0,0,1-2,.2h-.2a9.668,9.668,0,0,1-5.5-1.7,8.6,8.6,0,0,1-2-1.8v69.8a11.683,11.683,0,0,1-5.1,9.6A10.514,10.514,0,0,1,422.8,488.9ZM416.6,478a4.372,4.372,0,0,0,1.3,2.4,4.3,4.3,0,0,0,2.8,1.1h2a4.232,4.232,0,0,0,4.3-4.2V356.9a6.2,6.2,0,0,1,12.4,0v44.3a2.609,2.609,0,0,0,1.1,2.1,2.3,2.3,0,0,0,1.4.4h.2a.9.9,0,0,0,.5-.1,2.48,2.48,0,0,0,2-2.5V336.7a2.476,2.476,0,0,0-2.5-2.5H378.7a2.476,2.476,0,0,0-2.5,2.5v64.4a3.553,3.553,0,0,0,.2,1,2.526,2.526,0,0,0,2.3,1.5h.2a2.476,2.476,0,0,0,2.5-2.5V356.8a6.2,6.2,0,1,1,12.4,0V477.2a4.1,4.1,0,0,0,4.2,4.2h2a4.105,4.105,0,0,0,2.8-1.1,3.829,3.829,0,0,0,1.3-2.4V406.2a6.2,6.2,0,1,1,12.4,0v71A2.487,2.487,0,0,1,416.6,478Z" fill="#111820"/>
      <g id="Group_1" data-name="Group 1">
        <path id="Path_3" data-name="Path 3" d="M410.4,328c-12.3,0-22.6-12.3-22.6-26.8,0-13.7,9.7-24,22.6-24s22.6,10.3,22.6,24C433,315.7,422.7,328,410.4,328Zm0-43.5c-8.9,0-15.3,7-15.3,16.7,0,10.4,7.1,19.5,15.3,19.5,8.1,0,15.3-9.1,15.3-19.5C425.7,291.5,419.3,284.5,410.4,284.5Z" fill="#111820"/>
      </g>
    </g>
    <g id="Group_3" data-name="Group 3">
      <path id="Path_4" data-name="Path 4" d="M313.9,327.3c-11.7,0-21.7-11.7-21.7-25.7,0-13.1,9.3-23,21.7-23s21.7,9.9,21.7,23C335.5,315.6,325.6,327.3,313.9,327.3Zm0-41.3c-8.3,0-14.3,6.6-14.3,15.7,0,9.8,6.7,18.3,14.3,18.3s14.3-8.6,14.3-18.3C328.2,292.6,322.2,286,313.9,286Z" fill="#111820"/>
      <path id="Path_5" data-name="Path 5" d="M325.3,489h-.4a11.608,11.608,0,0,1-11.1-8.4,11.517,11.517,0,0,1-11.1,8.4h-.4a11.5,11.5,0,0,1-11.5-11.5V432.8h-1.5a7.729,7.729,0,0,1-5.9-2.6,8.119,8.119,0,0,1-1.9-6.2l4.3-35.4-3.1,8.5a10.044,10.044,0,0,1-12.7,6.1h-.1a10.027,10.027,0,0,1-5.7-5,9.593,9.593,0,0,1-.5-7.6l20.1-59.3.8,1.6a15.175,15.175,0,0,1,10.9-5.1H332a15.175,15.175,0,0,1,10.9,5.1l.8-1.5,2.8,8,17.3,51.2a9.906,9.906,0,0,1-6.2,12.6l-.2.1a10.06,10.06,0,0,1-12.6-6.1l-3.1-8.6L346,424a7.769,7.769,0,0,1-7.8,8.8h-1.5v44.7A11.292,11.292,0,0,1,325.3,489ZM307,425.5h13.8v52.1a4.118,4.118,0,0,0,4.1,4.1h.4a4.118,4.118,0,0,0,4.1-4.1V425.5h8.9a.4.4,0,0,0,.5-.5l-8.2-67.5-.2-.7.1-.3v-.4l1.5-2.3,4.3,2.5,1.6-.6,13.9,38.9a2.717,2.717,0,0,0,3.4,1.6l.2-.1a2.565,2.565,0,0,0,1.6-3.3l-14.6-43.1h0l-3.4-9.8a8.143,8.143,0,0,0-6.9-4.9H295.6a8.143,8.143,0,0,0-6.9,4.9l-3.4,9.8h0L270.8,393a2.791,2.791,0,0,0,.1,2,2.172,2.172,0,0,0,1.5,1.3h.1a2.716,2.716,0,0,0,3.4-1.6l13.9-38.9,1.9.7,4.1-2.4,1.3,2v.4l.1.3-.3.8L288.8,425a.4.4,0,0,0,.5.5h8.9v52.1a4.118,4.118,0,0,0,4.1,4.1h.4a4.118,4.118,0,0,0,4.1-4.1V425.5Z" fill="#111820"/>
    </g>
  </g>
  <g id="Group_6" data-name="Group 6">
    <g id="Group_5" data-name="Group 5">
      <path id="Path_6" data-name="Path 6" d="M551.3,248.7a231.844,231.844,0,0,0-50.9-50.9,226.252,226.252,0,0,0-64.2-32.7,229.07,229.07,0,0,0-71.1-11.2C238,153.8,134.9,256.9,134.9,384A230,230,0,0,0,365.2,614.2c127.1,0,230.2-103.1,230.2-230.2a229.7,229.7,0,0,0-11.2-71.2A232.9,232.9,0,0,0,551.3,248.7ZM365.1,539.2A155.2,155.2,0,1,1,520.3,384,155.219,155.219,0,0,1,365.1,539.2Z" fill="#9b9b9b"/>
      <path id="Path_7" data-name="Path 7" d="M365.1,615.8A231.836,231.836,0,1,1,552.5,247.7h0A230.614,230.614,0,0,1,596.8,384,231.825,231.825,0,0,1,365.1,615.8Zm0-460.4A228.886,228.886,0,0,0,147.6,454.7,229.033,229.033,0,0,0,230.7,569,228.574,228.574,0,0,0,550,249.7h0a231.289,231.289,0,0,0-50.6-50.6,228.313,228.313,0,0,0-134.3-43.7Zm0,385.4c-86.5,0-156.8-70.3-156.8-156.8s70.3-156.8,156.8-156.8S521.9,297.5,521.9,384,451.6,540.8,365.1,540.8Zm0-310.3c-84.7,0-153.6,68.9-153.6,153.6s68.9,153.6,153.6,153.6,153.6-69,153.6-153.7S449.8,230.5,365.1,230.5Z" fill="#111820"/>
    </g>
  </g>
  <g id="Group_8" data-name="Group 8">
    <g id="Group_7" data-name="Group 7">
      <path id="Path_8" data-name="Path 8" d="M355,154c-2.7.1-5.4.3-8,.5-.4,0-.7.1-1.1.1-2.4.2-4.8.4-7.2.7-.6.1-1.2.1-1.7.2-2.6.3-5.2.7-7.7,1.1-.6.1-1.1.2-1.7.3-2.2.4-4.5.8-6.7,1.2l-1.5.3c-2.5.5-5,1.1-7.4,1.6-.7.2-1.4.3-2,.5-2.2.5-4.3,1.1-6.4,1.7-.4.1-.8.2-1.3.3-2.3.7-4.7,1.4-7,2.1-.4.1-.8.3-1.2.4a3.583,3.583,0,0,0-1.1.4c-2.4.8-4.8,1.6-7.2,2.5-.4.1-.8.3-1.2.4-2.2.8-4.5,1.7-6.7,2.6-.5.2-1,.4-1.4.6-2.4,1-4.8,2.1-7.2,3.1-.5.2-1.1.5-1.6.7-2.3,1.1-4.5,2.2-6.8,3.3l-.6.3c-2.3,1.2-4.5,2.4-6.7,3.6-.6.4-1.3.7-1.9,1.1-2.1,1.2-4.2,2.4-6.3,3.7a17.4,17.4,0,0,1-1.8,1.1l-5.1,3.3-1.8,1.2c-2,1.3-3.9,2.7-5.9,4.1a8.65,8.65,0,0,1-1,.7c-.3.3-.7.5-1,.8-2,1.5-3.9,2.9-5.8,4.4a14.7,14.7,0,0,1-1.3,1c-1.7,1.3-3.4,2.7-5,4.1-.5.4-1.1.9-1.6,1.3-1.9,1.6-3.7,3.3-5.5,4.9-.5.5-1,1-1.6,1.5-1.7,1.6-3.5,3.3-5.2,5l-.9.9c-1.7,1.7-3.3,3.4-5,5.2-.5.5-1,1-1.5,1.6-1.7,1.8-3.3,3.7-4.9,5.5-.5.5-.9,1.1-1.4,1.6-1.4,1.6-2.8,3.3-4.1,5a12.668,12.668,0,0,1-1.1,1.3c-1.5,1.9-3,3.9-4.4,5.8-.3.4-.5.7-.8,1.1a8.65,8.65,0,0,0-.7,1c-1.4,1.9-2.7,3.9-4.1,5.8-.4.6-.8,1.2-1.2,1.9-1.1,1.6-2.1,3.2-3.1,4.9-.4.7-.9,1.4-1.3,2-1.2,2-2.4,4-3.6,6.1-.4.8-.9,1.5-1.3,2.3-1,1.9-2.1,3.8-3.1,5.7-.4.7-.7,1.4-1.1,2.1-.9,1.9-1.9,3.8-2.8,5.7-.4.8-.7,1.5-1.1,2.3-1,2.2-2,4.4-2.9,6.6-.3.7-.6,1.4-.9,2.2-.8,1.9-1.5,3.8-2.3,5.7-.2.6-.5,1.2-.7,1.8-.8,2.3-1.6,4.6-2.4,7-.1.4-.3.8-.4,1.2s-.3.8-.4,1.2c-.7,2.3-1.4,4.6-2.1,7a6.469,6.469,0,0,1-.4,1.3c-.6,2.1-1.1,4.2-1.7,6.4-.2.7-.3,1.4-.5,2.1-.6,2.4-1.1,4.9-1.6,7.4-.1.5-.2,1.1-.3,1.6l-1.2,6.6c-.1.6-.2,1.1-.3,1.7-.4,2.6-.8,5.1-1.1,7.7-.1.6-.1,1.2-.2,1.8-.3,2.3-.5,4.7-.7,7.1,0,.4-.1.8-.1,1.2-.2,2.6-.4,5.3-.5,8,0,.6-.1,1.3-.1,1.9-.1,2.7-.2,5.5-.2,8.2h75a156.078,156.078,0,0,1,7.6-48A153.457,153.457,0,0,1,239,293a155.185,155.185,0,0,1,125.6-64h0V154c-2.8,0-5.5.1-8.3.2C356.2,154,355.6,154,355,154Z" fill="#fff"/>
      <path id="Path_9" data-name="Path 9" d="M211.9,386H132.8v-2c0-2.5.1-5.2.2-8.3a12.1,12.1,0,0,1,.1-1.9c.1-2.9.3-5.6.5-8.1a1.7,1.7,0,0,1,.1-.7v-.5c.2-2.3.4-4.7.7-7.1l.1-.6c0-.4.1-.8.1-1.3.3-2.6.7-5.2,1.1-7.8.1-.4.1-.7.2-1.1l.1-.7c.4-2.2.8-4.5,1.2-6.7l.1-.6c.1-.3.1-.6.2-1,.5-2.4,1-4.9,1.6-7.4a13.323,13.323,0,0,1,.5-1.9l.1-.2c.5-2.2,1.1-4.4,1.7-6.4l.2-.6c.1-.3.1-.5.2-.8.6-2.1,1.3-4.4,2.1-7l.8-2.4c.9-2.6,1.7-4.9,2.4-7,.1-.4.3-.7.4-1.1l.3-.7c.7-1.9,1.5-3.9,2.3-5.8l.3-.7.6-1.5c.9-2.2,1.9-4.4,2.9-6.7.3-.6.6-1.3.9-1.9l.2-.4c1-2,1.9-3.9,2.8-5.7.4-.7.7-1.4,1.1-2.1,1-1.9,2-3.7,3.1-5.8.4-.8.9-1.5,1.3-2.3,1.3-2.2,2.4-4.2,3.6-6.1.3-.5.6-1,.9-1.4l.4-.6c1-1.7,2.1-3.3,3.1-4.9l.4-.7c.3-.4.5-.8.8-1.2,1.2-1.8,2.6-3.8,4.1-5.9l1.5-2c1.7-2.3,3.1-4.1,4.5-5.9.2-.3.4-.5.6-.8l.4-.5c1.3-1.7,2.7-3.4,4.1-5l.4-.5c.3-.4.6-.7.9-1.1,1.6-1.9,3.3-3.7,5-5.6.4-.4.8-.9,1.2-1.3l.2-.2c1.8-1.9,3.5-3.6,5-5.2l.9-.9c1.6-1.6,3.3-3.2,5.2-5l.2-.2c.4-.4.9-.8,1.3-1.2,1.8-1.7,3.7-3.4,5.6-5a9.961,9.961,0,0,0,1.1-1l.5-.4,5.1-4.2.5-.4c.3-.2.5-.4.8-.6,1.7-1.4,3.6-2.8,5.9-4.5l2-1.5c2.1-1.5,4.1-2.9,5.9-4.1a6.725,6.725,0,0,1,1.1-.7l.7-.4,5.1-3.3.6-.4c.4-.3.8-.5,1.2-.8,2-1.2,4.2-2.5,6.4-3.8a15.054,15.054,0,0,0,1.7-1l.2-.1c2.6-1.4,4.8-2.6,6.8-3.6l.6-.3c2.1-1.1,4.3-2.2,6.8-3.3l.4-.2,1.2-.6c2.4-1.1,4.9-2.2,7.2-3.2a3.552,3.552,0,0,0,.9-.4l.6-.2c2.3-.9,4.5-1.8,6.8-2.7l.5-.2c.2-.1.5-.2.7-.3,2.1-.8,4.5-1.6,7.3-2.5l2.3-.8c2.7-.9,4.9-1.5,7.1-2.1.2-.1.5-.1.7-.2l.5-.1c2.1-.6,4.3-1.1,6.5-1.7.7-.2,1.4-.3,2.1-.5,2.6-.6,5.1-1.2,7.5-1.6.3-.1.6-.1.9-.2l.6-.1c2.2-.4,4.5-.8,6.7-1.2l.6-.1c.4-.1.7-.1,1.1-.2,2.5-.4,5.2-.8,7.8-1.1.4,0,.8-.1,1.2-.1l.6-.1c2.5-.3,4.9-.5,7.2-.7l1.1-.1c2.5-.2,5.2-.4,8.1-.5h0a12.1,12.1,0,0,0,1.9-.1c3.2-.1,5.8-.2,8.3-.2h2v79.1h-2.1a150.848,150.848,0,0,0-47.2,7.5A153.923,153.923,0,0,0,275,260a155.712,155.712,0,0,0-33.9,33.9,152.849,152.849,0,0,0-29.3,90Zm-75-4h70.9a157.567,157.567,0,0,1,64.9-125.1,157.832,157.832,0,0,1,43.8-22.4,159.6,159.6,0,0,1,46.6-7.7V155.9c-1.9,0-3.9.1-6.1.1a12.75,12.75,0,0,0-1.9.1h0c-2.9.1-5.5.3-8,.5l-1.1.1c-2.3.2-4.7.4-7.1.7l-.6.1c-.4,0-.8.1-1.1.1-2.6.3-5.2.7-7.7,1.1-.3.1-.7.1-1,.2l-.6.1c-2.2.4-4.5.8-6.6,1.2l-.6.1c-.3.1-.6.1-.9.2-2.4.5-4.8,1-7.3,1.6-.7.2-1.3.3-2,.5-2.3.6-4.4,1.1-6.4,1.7l-.6.2a6.37,6.37,0,0,1-.7.2c-2.1.6-4.3,1.3-6.9,2.1l-2.3.7c-2.7.9-5,1.7-7.1,2.5l-1.2.4c-2.2.8-4.4,1.7-6.6,2.6l-1.4.6c-2.3,1-4.7,2-7.1,3.1l-1.2.6-.4.2c-2.4,1.1-4.6,2.2-6.7,3.3l-.6.3c-2,1-4.1,2.2-6.7,3.6l-.2.1c-.6.3-1.1.6-1.7.9-2.2,1.2-4.3,2.5-6.3,3.7-.4.2-.8.5-1.2.7l-.6.4c-1.7,1-3.4,2.1-5,3.2l-.7.4c-.4.2-.7.5-1.1.7-1.8,1.2-3.7,2.6-5.8,4.1l-2,1.4c-2.2,1.7-4.1,3.1-5.8,4.4-.2.2-.5.4-.7.6l-.5.4c-1.6,1.3-3.3,2.7-5,4.1l-.5.4c-.4.3-.7.6-1.1.9-1.8,1.6-3.7,3.2-5.5,4.9-.4.4-.9.8-1.3,1.2l-.2.2c-1.9,1.8-3.6,3.4-5.1,4.9l-.9.9c-1.5,1.5-3.1,3.2-4.9,5.1l-.2.3c-.4.4-.8.9-1.2,1.3-1.7,1.8-3.3,3.7-4.9,5.5-.3.3-.6.7-.9,1l-.5.5c-1.4,1.6-2.8,3.3-4.1,4.9l-.5.6c-.2.2-.4.5-.6.7-1.3,1.7-2.7,3.5-4.4,5.8l-1.5,2c-1.5,2.1-2.8,4-4,5.8-.3.4-.5.8-.8,1.2l-.4.7c-1,1.6-2.1,3.2-3.1,4.8l-.4.6c-.3.5-.6.9-.9,1.4-1.2,1.9-2.3,3.9-3.5,6-.4.8-.8,1.5-1.3,2.3-1.1,2-2.1,3.8-3,5.7-.4.7-.7,1.4-1.1,2.1-.9,1.8-1.8,3.6-2.7,5.6l-.2.4c-.3.6-.6,1.3-.9,1.9-1,2.2-2,4.4-2.9,6.5l-.6,1.5-.3.7c-.8,1.9-1.5,3.8-2.2,5.7l-.3.8c-.1.3-.3.7-.4,1-.8,2.1-1.5,4.3-2.4,6.9l-.8,2.4c-.8,2.6-1.5,4.8-2.1,6.9-.1.2-.1.5-.2.7l-.2.6c-.6,2-1.1,4.1-1.6,6.3l-.1.2c-.2.6-.3,1.2-.5,1.9-.6,2.5-1.1,5-1.6,7.3-.1.3-.1.6-.2.9l-.1.7-1.2,6.6-.1.7c-.1.3-.1.7-.2,1-.4,2.5-.7,5.1-1.1,7.6,0,.4-.1.8-.1,1.2l-.1.6c-.3,2.4-.5,4.8-.7,7v.5a1.268,1.268,0,0,1-.1.6c-.2,2.5-.3,5-.5,7.9,0,.6-.1,1.3-.1,1.9A30.6,30.6,0,0,1,136.9,382Z" fill="#111820"/>
    </g>
  </g>
</svg>
