<?xml version="1.0" encoding="utf-8"?>
<!-- Generator: Adobe Illustrator 26.0.3, SVG Export Plug-In . SVG Version: 6.00 Build 0)  -->
<svg version="1.1" id="requisito8" xmlns="http://www.w3.org/2000/svg" xmlns:xlink="http://www.w3.org/1999/xlink" x="0px" y="0px"
	 viewBox="0 0 730.2 695.1" style="enable-background:new 0 0 730.2 695.1;" xml:space="preserve">
<style type="text/css">
	.st0{fill:#FFFFFF;fill-opacity:0;}
	.st1{fill:#111820;}
</style>
<rect id="Rectangle_12" class="st0" width="730.2" height="695.1"/>
<path id="Path_40" class="st1" d="M517,572.1H213.2c-40.1,0-72.7-32.6-72.7-72.7V192.6c0-31.8,21.5-59.5,52.3-67.5l4.1-1.1v27
	l-1.4,1c-7.5,5.3-9.3,15.7-4,23.2c5.3,7.5,15.7,9.3,23.2,4c4.4-3.1,7.1-8.2,7.1-13.6c0-5.4-2.6-10.5-7.1-13.6l-1.4-1v-28.1h63.6V151
	l-1.4,1c-7.5,5.3-9.3,15.7-4,23.2c5.3,7.5,15.7,9.3,23.2,4c4.4-3.1,7.1-8.2,7.1-13.6c0-5.4-2.6-10.5-7.1-13.6l-1.4-1v-28.1h63.6V151
	l-1.4,1c-7.5,5.3-9.3,15.7-4,23.2c5.3,7.5,15.7,9.3,23.2,4c4.4-3.1,7.1-8.2,7.1-13.6c0-5.4-2.6-10.5-7.1-13.6l-1.4-1v-28.1h63.6V151
	l-1.4,1c-7.5,5.3-9.3,15.7-4,23.2c5.3,7.5,15.7,9.3,23.2,4c4.4-3.1,7.1-8.2,7.1-13.6c0-5.4-2.6-10.5-7.1-13.6l-1.4-1v-28.1h63.6V151
	l-1.4,1c-7.5,5.3-9.3,15.7-4,23.2c5.3,7.5,15.7,9.3,23.2,4c4.4-3.1,7.1-8.2,7.1-13.6c0-5.4-2.6-10.5-7.1-13.6l-1.4-1v-22.7h3.2
	l0.8-3.2c0.6,0.2,1.2,0.3,1.8,0.5l0.7,0.2c29.6,8.8,49.9,36,49.9,66.8v306.8C589.7,539.5,557.1,572.1,517,572.1z M190.3,132.7
	c-25.8,8.6-43.3,32.7-43.3,59.9v306.8c0.1,36.5,29.6,66,66.1,66.1H517c36.5-0.1,66-29.6,66.1-66.1V192.6c0-27.2-17.5-51.4-43.3-59.9
	v15c9.9,8.1,11.2,22.7,3.1,32.6c-8.1,9.9-22.7,11.2-32.6,3.1c-9.9-8.1-11.2-22.7-3.1-32.6c0.9-1.1,2-2.2,3.1-3.1v-18.2h-50.5v18.2
	c9.9,8.1,11.4,22.8,3.2,32.7c-8.1,9.9-22.8,11.4-32.7,3.2c-9.9-8.1-11.4-22.8-3.2-32.7c1-1.2,2-2.3,3.2-3.2v-18.2h-50.5v18.2
	c9.9,8.1,11.3,22.7,3.2,32.6c-8.1,9.9-22.7,11.3-32.6,3.2c-5.4-4.4-8.5-11-8.5-17.9c0-6.9,3.1-13.5,8.5-17.9v-18.2h-50.5v18.2
	c9.9,8.1,11.3,22.7,3.2,32.6c-8.1,9.9-22.7,11.3-32.6,3.2c-5.4-4.4-8.5-11-8.5-17.9c0-6.9,3.1-13.5,8.5-17.9v-18.2H220v18.2
	c9.9,8.1,11.3,22.7,3.2,32.6c-8.1,9.9-22.7,11.3-32.6,3.2c-5.4-4.4-8.5-11-8.5-17.9c0-6.9,3.1-13.5,8.5-17.9v-15H190.3z M517,563.5
	H213.2c-35.3-0.1-63.9-28.7-64-64V264.8H581v234.6C580.9,534.7,552.3,563.3,517,563.5z M155.7,271.3v228.1
	c0.1,31.7,25.8,57.4,57.5,57.5H517c31.7-0.1,57.4-25.8,57.5-57.5V271.3H155.7z M525.1,176.8c-6.2,0-11.2-5-11.2-11.2c0,0,0,0,0,0
	c0-3.4,1.6-6.6,4.2-8.8v-33.9l3.3,0.1c2.6,0.1,5.3,0.3,7.9,0.6l2.8,0.4v32.9c2.7,2.1,4.2,5.4,4.2,8.8
	C536.3,171.9,531.3,176.8,525.1,176.8L525.1,176.8z M524.6,129.6v30.9l-1.7,0.9c-1.5,0.8-2.5,2.4-2.5,4.2c0,2.6,2.1,4.7,4.6,4.8
	s4.7-2.1,4.8-4.6c0-1.8-0.9-3.4-2.5-4.2l-1.7-0.9v-30.8C525.3,129.7,524.9,129.7,524.6,129.6L524.6,129.6z M445.1,176.8
	c-6.2,0-11.2-5-11.2-11.2c0,0,0,0,0,0c0-3.4,1.6-6.6,4.2-8.8v-33.9h14.1v33.9c4.8,3.9,5.6,11,1.7,15.8
	C451.8,175.3,448.5,176.8,445.1,176.8L445.1,176.8z M444.6,129.5v31.1l-1.7,0.9c-1.5,0.8-2.5,2.4-2.5,4.2c0,2.6,2.1,4.7,4.6,4.8
	c2.6,0,4.7-2.1,4.8-4.6c0-1.8-0.9-3.4-2.5-4.2l-1.7-0.9v-31.1h-1L444.6,129.5z M365.1,176.8c-6.2,0-11.2-5-11.2-11.2c0,0,0,0,0,0
	c0-3.4,1.6-6.6,4.2-8.8v-33.9h14.1v33.9c4.8,3.9,5.6,11,1.7,15.8C371.8,175.3,368.5,176.8,365.1,176.8L365.1,176.8z M364.6,129.5
	v31.1l-1.7,0.9c-1.5,0.8-2.5,2.4-2.5,4.2c0,2.6,2.1,4.7,4.6,4.8c2.6,0,4.7-2.1,4.8-4.6c0-1.8-0.9-3.4-2.5-4.2l-1.7-0.9v-31.1h-1
	L364.6,129.5z M285.1,176.8c-6.2,0-11.2-5-11.2-11.2c0,0,0,0,0,0c0-3.4,1.6-6.6,4.2-8.8v-33.9h14.1v33.9c4.8,3.9,5.6,11,1.7,15.8
	C291.8,175.3,288.5,176.8,285.1,176.8L285.1,176.8z M284.6,129.5v31.1l-1.7,0.9c-1.5,0.8-2.5,2.4-2.5,4.2c0,2.6,2.1,4.7,4.6,4.8
	c2.6,0,4.7-2.1,4.8-4.6c0-1.8-0.9-3.4-2.5-4.2l-1.7-0.9v-31.1h-1L284.6,129.5z M205.1,176.8c-6.2,0-11.2-5-11.2-11.2c0,0,0,0,0,0
	c0-3.4,1.6-6.6,4.2-8.8v-32.9l2.8-0.4c2.6-0.3,5.3-0.5,7.9-0.6l3.3-0.1v33.9c4.9,3.9,5.6,11,1.7,15.9
	C211.7,175.2,208.5,176.8,205.1,176.8L205.1,176.8z M204.6,129.7v30.8l-1.7,0.9c-1.5,0.8-2.5,2.4-2.5,4.2c0,2.6,2.1,4.7,4.6,4.8
	c2.6,0,4.7-2.1,4.8-4.6c0-1.8-0.9-3.4-2.5-4.2l-1.7-0.9v-30.9L204.6,129.7z"/>
<path id="Path_41" class="st1" d="M247.2,209.3h26.2v6.8H257v5h15.2v6.5H257v6.2h16.9v7.2h-26.7V209.3z M277,209.3h10.8l5.6,9.8
	l5.5-9.8h10.7l-9.8,15.4l10.8,16.3h-11l-6.2-10.2L287,241h-10.9l10.9-16.5L277,209.3z M313.6,209.3h16.3c3.5,0,6.2,0.8,8,2.5
	s2.6,4.1,2.6,7.2c0.1,2.8-0.9,5.5-2.9,7.5c-1.9,1.8-4.9,2.7-8.8,2.7h-5.4V241h-9.8L313.6,209.3L313.6,209.3z M323.4,222.8h2.4
	c1.9,0,3.2-0.3,4-1c0.8-0.6,1.2-1.5,1.2-2.5c0-0.9-0.3-1.8-1-2.5c-0.7-0.7-1.9-1-3.8-1h-2.8L323.4,222.8L323.4,222.8z M360.5,209.3
	h14.6c2.4-0.1,4.8,0.3,7,1.2c1.7,0.7,3.2,1.9,4.4,3.3c1.2,1.5,2,3.2,2.5,5.1c0.5,2,0.8,4,0.8,6.1c0.1,2.7-0.3,5.4-1.2,7.9
	c-0.7,1.8-1.8,3.4-3.2,4.7c-1.2,1.2-2.7,2.1-4.4,2.5c-1.9,0.6-3.8,0.9-5.8,0.9h-14.6v-31.7H360.5z M370.3,216.5v17.3h2.4
	c1.5,0.1,3-0.1,4.4-0.7c0.9-0.5,1.6-1.4,2-2.4c0.6-1.8,0.8-3.6,0.7-5.5c0-3.4-0.5-5.7-1.6-6.9s-2.9-1.9-5.5-1.9L370.3,216.5
	L370.3,216.5z M412.4,235.8h-11.1l-1.6,5.2h-10l11.9-31.7h10.7l11.9,31.7H414L412.4,235.8z M410.3,228.9l-3.5-11.4l-3.5,11.4H410.3z
	 M422.1,209.3h29.8v7.8h-10V241h-9.8v-23.9h-10V209.3z M456.3,209.3h26.2v6.8h-16.4v5h15.2v6.5h-15.2v6.2H483v7.2h-26.7V209.3z"/>
<path id="Path_42" class="st1" d="M330.6,429.6h10.9l6.4,10.7l6.4-10.7h10.8L352.8,448v13.3H343V448L330.6,429.6z M365.1,429.6H376
	l6.4,10.7l6.4-10.7h10.8L387.3,448v13.3h-9.8V448L365.1,429.6z"/>
<path id="Path_43" class="st1" d="M222.1,289.8H235l4.9,19.3l4.9-19.3h12.9v31.7h-8v-24.2l-6.2,24.2h-7.3l-6.2-24.2v24.2h-8v-31.7
	H222.1z M263.9,289.8h12.9l4.9,19.3l4.9-19.3h12.9v31.7h-8v-24.2l-6.2,24.2H278l-6.2-24.2v24.2h-8v-31.7H263.9z"/>
<path id="Path_44" class="st1" d="M191.2,398.7c-1.2,0-2.2-1-2.2-2.2c0-1.2,1-2.2,2.2-2.2h139.3c1.2,0,2.2,1,2.2,2.2
	c0,1.2-1,2.2-2.2,2.2H191.2z"/>
<path id="Path_45" class="st1" d="M437.5,289.8H452c2.4-0.1,4.8,0.3,7,1.2c1.7,0.7,3.2,1.9,4.4,3.3c1.2,1.5,2,3.2,2.5,5.1
	c0.5,2,0.8,4,0.8,6.1c0.1,2.7-0.3,5.4-1.2,7.9c-0.7,1.8-1.8,3.4-3.2,4.7c-1.2,1.2-2.7,2.1-4.4,2.5c-1.9,0.6-3.8,0.9-5.8,0.9h-14.6
	V289.8z M447.3,297v17.3h2.4c1.5,0.1,3-0.1,4.4-0.7c0.9-0.5,1.6-1.4,2-2.4c0.6-1.8,0.8-3.6,0.7-5.5c0-3.4-0.5-5.7-1.6-6.9
	s-2.9-1.9-5.5-1.9h-2.4V297z M471.9,289.8h14.6c2.4-0.1,4.8,0.3,7,1.2c1.7,0.7,3.2,1.9,4.4,3.3c1.2,1.5,2,3.2,2.5,5.1
	c0.5,2,0.8,4,0.8,6.1c0.1,2.7-0.3,5.4-1.2,7.9c-0.7,1.8-1.8,3.4-3.2,4.7c-1.2,1.2-2.7,2.1-4.4,2.5c-1.9,0.6-3.8,0.9-5.8,0.9H472
	v-31.7H471.9z M481.7,297v17.3h2.4c1.5,0.1,3-0.1,4.4-0.7c0.9-0.5,1.6-1.4,2-2.4c0.6-1.8,0.8-3.6,0.7-5.5c0-3.4-0.5-5.7-1.6-6.9
	s-2.9-1.9-5.5-1.9h-2.4V297z"/>
<path id="Path_46" class="st1" d="M399.7,398.7c-1.2,0-2.2-1-2.2-2.2c0-1.2,1-2.2,2.2-2.2H539c1.2,0,2.2,1,2.2,2.2s-1,2.2-2.2,2.2
	c0,0,0,0,0,0H399.7z"/>
<path id="Path_47" class="st1" d="M260.8,538.5c-1.2,0-2.2-1-2.2-2.2s1-2.2,2.2-2.2l0,0h208.5c1.2,0,2.2,1,2.2,2.2s-1,2.2-2.2,2.2
	H260.8z"/>
<g id="Group_19">
	<path id="Path_48" class="st1" d="M438.4,376.3l10.4-2.7c0,5,1.7,7.6,5.2,7.6c1.5,0.1,2.9-0.4,3.9-1.5c0.9-1.2,1.4-2.7,1.3-4.2
		c0-3.8-1.8-5.7-5.3-5.7h-2.8v-8.5h3c1.2,0.1,2.3-0.5,2.9-1.6c0.7-1.3,1-2.7,1-4.1c0.1-1.3-0.3-2.5-1-3.6c-0.6-1-1.6-1.5-2.7-1.5
		c-1.6-0.1-3.1,0.7-3.8,2.2c-0.9,2-1.3,4.1-1.3,6.3l-10-2.8c0.3-5,1.7-8.8,4.2-11.4c2.5-2.5,6.2-3.8,11.2-3.8c1.9,0,3.9,0.3,5.7,1
		c1.7,0.6,3.2,1.5,4.4,2.7c1.2,1.2,2.2,2.6,2.9,4.1c0.7,1.6,1,3.4,1,5.2c0,5.2-1.8,8.8-5.4,10.8v0.2c2,0.6,3.8,2,4.9,3.8
		c1.2,2.1,1.8,4.5,1.7,6.9c0,2.1-0.4,4.2-1.1,6.1c-0.7,1.8-1.8,3.4-3.2,4.8c-1.5,1.3-3.2,2.4-5,3.1c-2.1,0.7-4.3,1.1-6.5,1.1
		C444.3,390.6,439.1,385.9,438.4,376.3z"/>
	<path id="Path_48_00000152965685921685631720000004523902594259377836_" class="st1" d="M404.4,515.3l10.4-2.7c0,5,1.7,7.6,5.2,7.6
		c1.5,0.1,2.9-0.4,3.9-1.5c0.9-1.2,1.4-2.7,1.3-4.2c0-3.8-1.8-5.7-5.3-5.7h-2.8v-8.5h3c1.2,0.1,2.3-0.5,2.9-1.6c0.7-1.3,1-2.7,1-4.1
		c0.1-1.3-0.3-2.5-1-3.6c-0.6-1-1.6-1.5-2.7-1.5c-1.6-0.1-3.1,0.7-3.8,2.2c-0.9,2-1.3,4.1-1.3,6.3l-10-2.8c0.3-5,1.7-8.8,4.2-11.4
		c2.5-2.5,6.2-3.8,11.2-3.8c1.9,0,3.9,0.3,5.7,1c1.7,0.6,3.2,1.5,4.4,2.7c1.2,1.2,2.2,2.6,2.9,4.1c0.7,1.6,1,3.4,1,5.2
		c0,5.2-1.8,8.8-5.4,10.8v0.2c2,0.6,3.8,2,4.9,3.8c1.2,2.1,1.8,4.5,1.7,6.9c0,2.1-0.4,4.2-1.1,6.1c-0.7,1.8-1.8,3.4-3.2,4.8
		c-1.5,1.3-3.2,2.4-5,3.1c-2.1,0.7-4.3,1.1-6.5,1.1C410.3,529.6,405.1,524.9,404.4,515.3z"/>
	<path id="Path_49" class="st1" d="M490.6,342.2v47.2h-9.8V356l-4.7,4.3l-5.3-7.8l12.8-10.3H490.6z"/>
</g>
<g id="Group_20">
	<path id="Path_50" class="st1" d="M295.5,520.4l7-5.3c2-1.7,3.7-3.3,5.3-4.9c1.5-1.4,2.8-3,3.9-4.7c1-1.4,1.8-3,2.4-4.6
		c0.5-1.5,0.8-3.2,0.8-4.8c0-4.6-1.4-6.9-4.1-6.9c-3.4,0-5.1,3.2-5.1,9.6l-10.2-1.6c0-6,1.2-10.5,3.7-13.3s6.3-4.2,11.5-4.2
		c2.2,0,4.3,0.3,6.3,1.1c1.7,0.7,3.3,1.8,4.6,3.1c1.3,1.4,2.2,3,2.8,4.8c0.7,2.1,1,4.2,1,6.4c0.1,3.9-0.8,7.8-2.7,11.2
		c-1.8,3-5,6.7-9.5,11l-2.1,1.6h14.5v9.3h-30.3v-7.8H295.5z"/>
	<path id="Path_51" class="st1" d="M329.5,504.6c0-3,0.2-6,0.7-8.9c0.4-2.8,1.4-5.5,2.7-8c2.7-5.2,8.3-8.4,14.2-8
		c3.6,0,6.6,0.7,8.8,2.2c2.2,1.5,3.9,3.5,5.1,5.8c1.2,2.5,2.1,5.2,2.4,8c0.4,2.9,0.6,5.9,0.6,8.9c0,3.5-0.3,7-1.1,10.4
		c-0.6,2.8-1.7,5.4-3.2,7.8c-1.3,2.1-3.2,3.7-5.3,4.9c-2.3,1.2-4.8,1.7-7.4,1.7c-6.2,0-10.6-2-13.4-6.1S329.5,513.1,329.5,504.6z
		 M347.1,520c2.3,0.1,4.4-1.5,5-3.7c0.9-2.5,1.4-6.4,1.4-11.7c0.1-3.9-0.3-7.8-1.4-11.5c-0.9-2.6-2.6-4-5-4c-3,0-5,1.7-5.8,5
		c-0.4,1.6-0.7,3.2-0.9,4.8c-0.2,1.9-0.2,3.7-0.2,5.6c0,5.2,0.5,9,1.5,11.6C342.3,518.5,344.6,520.1,347.1,520z"/>
	<path id="Path_52" class="st1" d="M367.9,520.4l7-5.3c2-1.7,3.7-3.3,5.3-4.9c1.5-1.4,2.8-3,3.9-4.7c1-1.4,1.8-3,2.4-4.6
		c0.5-1.5,0.8-3.2,0.8-4.8c0-4.6-1.4-6.9-4.1-6.9c-3.4,0-5.1,3.2-5.1,9.6l-10.2-1.6c0-6,1.2-10.5,3.7-13.3s6.3-4.2,11.5-4.2
		c2.2,0,4.3,0.3,6.3,1.1c1.7,0.7,3.3,1.8,4.6,3.1c1.3,1.4,2.2,3,2.8,4.8c0.7,2.1,1,4.2,1,6.4c0.1,3.9-0.8,7.8-2.7,11.2
		c-1.8,3-5,6.7-9.5,11l-2.1,1.6H398v9.3h-30.3v-7.8H367.9z"/>
</g>
<g id="Group_21">
	<path id="Path_54" class="st1" d="M247.4,342.2v47.2h-9.8V356l-4.7,4.3l-5.3-7.8l12.8-10.3H247.4z"/>
	<path id="Path_55" class="st1" d="M253,381.6l7-5.3c2-1.7,3.7-3.3,5.3-4.9c1.5-1.4,2.8-3,3.9-4.7c1-1.4,1.8-3,2.4-4.6
		c0.5-1.5,0.8-3.2,0.8-4.8c0-4.6-1.4-6.9-4.1-6.9c-3.4,0-5.1,3.2-5.1,9.6l-10.2-1.6c0-6,1.2-10.5,3.7-13.3c2.5-2.8,6.3-4.2,11.5-4.2
		c2.2,0,4.3,0.3,6.3,1.1c1.7,0.7,3.3,1.8,4.6,3.1c1.3,1.4,2.2,3,2.8,4.8c0.7,2.1,1,4.2,1,6.4c0.1,3.9-0.8,7.8-2.7,11.2
		c-1.8,3-5,6.7-9.5,11l-2.1,1.6h14.5v9.3H253V381.6z"/>
</g>
</svg>
