<?xml version="1.0" encoding="utf-8"?>
<!-- Generator: Adobe Illustrator 25.0.1, SVG Export Plug-In . SVG Version: 6.00 Build 0)  -->
<svg version="1.1" id="Capa_1" xmlns="http://www.w3.org/2000/svg" xmlns:xlink="http://www.w3.org/1999/xlink" x="0px" y="0px"
	 viewBox="0 0 150 150" style="enable-background:new 0 0 150 150;" xml:space="preserve">
<style type="text/css">
	.st0{fill:#FF5900;}
</style>
<g>
	<g>
		<g>
			<path class="st0" d="M103.7,38.8h-8.9v-4c0-1.3-1.4-1.9-2.7-1.9h-6.9c-1.6-4.7-5.7-7-10.4-7c-4.6-0.2-8.8,2.7-10.4,7h-6.8
				c-1.3,0-2.6,0.6-2.6,1.9v4h-8.9c-5.3,0.1-9.6,4.2-9.8,9.4v66.8c0,5.1,4.7,8.9,9.8,8.9h57.4c5.1,0,9.8-3.7,9.8-8.9V48.3
				C113.3,43,109,38.9,103.7,38.8z M59.8,37.7h6.4c1.1-0.1,2-1,2.2-2.1c0.7-3,3.3-5.2,6.4-5.2c3.1,0.1,5.7,2.3,6.3,5.2
				c0.2,1.1,1.2,2,2.3,2.1h6.7V47H59.8V37.7z M108.8,115.1c0,2.6-2.6,4.2-5.1,4.2H46.3c-2.6,0-5.1-1.6-5.1-4.2V48.3
				c0.2-2.7,2.5-4.7,5.1-4.8h8.9v6c0.1,1.3,1.3,2.3,2.6,2.2h34.4c1.3,0.1,2.5-0.9,2.7-2.2v-6h8.9c2.7,0,4.9,2.1,5.1,4.8L108.8,115.1
				L108.8,115.1z"/>
			<path class="st0" d="M66,78.2c-0.9-0.9-2.3-1-3.3-0.1l-7.5,7.1l-3.1-3.3c-0.9-0.9-2.3-1-3.3-0.1c-0.9,0.9-0.9,2.4,0,3.4l4.8,4.9
				c0.4,0.5,1,0.7,1.6,0.7c0.6,0,1.2-0.3,1.6-0.7l9.1-8.6c0.9-0.8,1-2.2,0.1-3.1C66.1,78.2,66.1,78.2,66,78.2z"/>
			<path class="st0" d="M99.5,83.2H72.7c-1.3,0-2.3,1-2.3,2.3c0,1.3,1,2.3,2.3,2.3h26.8c1.3,0,2.3-1,2.3-2.3
				C101.8,84.2,100.8,83.2,99.5,83.2z"/>
			<path class="st0" d="M66,59.5c-0.9-0.9-2.3-1-3.3-0.1l-7.5,7.1l-3.1-3.3c-0.9-0.9-2.3-1-3.3-0.1c-0.9,0.9-0.9,2.4,0,3.4l4.8,4.9
				c0.4,0.5,1,0.7,1.6,0.7c0.6,0,1.2-0.3,1.6-0.7l9.1-8.6c0.9-0.8,1-2.2,0.1-3.1C66.1,59.6,66.1,59.5,66,59.5z"/>
			<path class="st0" d="M99.5,64.5H72.7c-1.3,0-2.3,1-2.3,2.3c0,1.3,1,2.3,2.3,2.3h26.8c1.3,0,2.3-1,2.3-2.3
				C101.8,65.5,100.8,64.5,99.5,64.5z"/>
			<path class="st0" d="M66,96.8c-0.9-0.9-2.3-1-3.3-0.1l-7.5,7.1l-3.1-3.3c-0.9-0.9-2.3-1-3.3-0.1c-0.9,0.9-0.9,2.4,0,3.4l4.8,4.9
				c0.4,0.5,1,0.7,1.6,0.7c0.6,0,1.2-0.3,1.6-0.7l9.1-8.6c0.9-0.8,1-2.2,0.1-3.1C66.1,96.9,66.1,96.9,66,96.8z"/>
			<path class="st0" d="M99.5,101.8H72.7c-1.3,0-2.3,1-2.3,2.3s1,2.3,2.3,2.3h26.8c1.3,0,2.3-1,2.3-2.3S100.8,101.8,99.5,101.8z"/>
		</g>
	</g>
</g>
</svg>
