<?xml version="1.0" encoding="utf-8"?>
<!-- Generator: Adobe Illustrator 25.0.1, SVG Export Plug-In . SVG Version: 6.00 Build 0)  -->
<svg version="1.1" id="Capa_1" xmlns="http://www.w3.org/2000/svg" xmlns:xlink="http://www.w3.org/1999/xlink" x="0px" y="0px"
	 viewBox="0 0 150 150" style="enable-background:new 0 0 150 150;" xml:space="preserve">
<style type="text/css">
	.st0{fill:#FF5900;}
</style>
<g>
	<g>
		<g>
			<circle class="st0" cx="97.2" cy="67.2" r="3.4"/>
			<path class="st0" d="M105,38.2h-4.4v-3.4c0-1.9-1.5-3.4-3.4-3.4s-3.4,1.5-3.4,3.4v3.4H78.2v-3.4c0-1.9-1.5-3.4-3.4-3.4
				s-3.4,1.5-3.4,3.4v3.4H56.1v-3.4c0-1.9-1.5-3.4-3.4-3.4c-1.9,0-3.4,1.5-3.4,3.4v3.4H45c-7.5,0-13.6,6.1-13.6,13.6V105
				c0,7.5,6.1,13.6,13.6,13.6h26.1c1.9,0,3.4-1.5,3.4-3.4s-1.5-3.4-3.4-3.4H45c-3.8,0-6.8-3.1-6.8-6.8V51.8c0-3.8,3.1-6.8,6.8-6.8
				h4.3v3.4c0,1.9,1.5,3.4,3.4,3.4c1.9,0,3.4-1.5,3.4-3.4V45h15.4v3.4c0,1.9,1.5,3.4,3.4,3.4c1.9,0,3.4-1.5,3.4-3.4V45h15.5v3.4
				c0,1.9,1.5,3.4,3.4,3.4s3.4-1.5,3.4-3.4V45h4.4c3.8,0,6.8,3.1,6.8,6.8v19.4c0,1.9,1.5,3.4,3.4,3.4s3.4-1.5,3.4-3.4V51.8
				C118.7,44.3,112.5,38.2,105,38.2z"/>
			<path class="st0" d="M98,77.4c-11.4,0-20.6,9.3-20.6,20.6s9.3,20.6,20.6,20.6s20.6-9.3,20.6-20.6S109.4,77.4,98,77.4z M98,111.8
				c-7.6,0-13.8-6.2-13.8-13.8c0-7.6,6.2-13.8,13.8-13.8c7.6,0,13.8,6.2,13.8,13.8C111.8,105.6,105.6,111.8,98,111.8z"/>
			<circle class="st0" cx="82.3" cy="67.2" r="3.4"/>
			<circle class="st0" cx="67.5" cy="82" r="3.4"/>
			<circle class="st0" cx="52.7" cy="67.2" r="3.4"/>
			<circle class="st0" cx="52.7" cy="82" r="3.4"/>
			<circle class="st0" cx="52.7" cy="96.8" r="3.4"/>
			<circle class="st0" cx="67.5" cy="96.8" r="3.4"/>
			<circle class="st0" cx="67.5" cy="67.2" r="3.4"/>
			<g>
				<path class="st0" d="M97,101c-0.3-0.3-0.4-0.6-0.5-1.1L95,91.1c0-0.1,0-0.3,0-0.5c0-0.8,0.3-1.5,0.9-2c0.6-0.5,1.3-0.7,2.2-0.7
					c0.9,0,1.6,0.2,2.2,0.7c0.6,0.5,0.8,1.2,0.8,2c0,0.2,0,0.3,0,0.5l-1.5,8.8c-0.1,0.5-0.2,0.9-0.5,1.1c-0.3,0.3-0.6,0.4-1,0.4
					C97.6,101.4,97.3,101.3,97,101z M96.1,107.4c-0.5-0.5-0.8-1.2-0.8-2c0-0.8,0.3-1.4,0.8-2c0.5-0.5,1.2-0.8,2-0.8
					c0.8,0,1.4,0.3,1.9,0.8c0.5,0.5,0.8,1.2,0.8,2c0,0.8-0.3,1.4-0.8,2c-0.5,0.5-1.2,0.8-1.9,0.8C97.2,108.1,96.6,107.9,96.1,107.4z
					"/>
			</g>
		</g>
	</g>
</g>
</svg>
