<?xml version="1.0" encoding="utf-8"?>
<!-- Generator: Adobe Illustrator 25.0.1, SVG Export Plug-In . SVG Version: 6.00 Build 0)  -->
<svg version="1.1" id="Capa_1" xmlns="http://www.w3.org/2000/svg" xmlns:xlink="http://www.w3.org/1999/xlink" x="0px" y="0px"
	 viewBox="0 0 150 150" style="enable-background:new 0 0 150 150;" xml:space="preserve">
<style type="text/css">
	.st0{fill:#FF5900;}
</style>
<g>
	<g>
		<path class="st0" d="M110.1,105.3H94.2c-1.6,0-2.8-1.3-2.8-2.8c0-1.6,1.3-2.8,2.8-2.8h13.9l5.5-15.2H36.4l5.5,15.2h13.9
			c1.6,0,2.8,1.3,2.8,2.8c0,1.6-1.3,2.8-2.8,2.8H39.9c-1.2,0-2.3-0.7-2.7-1.9l-7.6-20.9c-0.3-0.9-0.2-1.8,0.3-2.6
			c0.5-0.8,1.4-1.2,2.3-1.2h85.3c0.9,0,1.8,0.5,2.3,1.2c0.5,0.8,0.7,1.7,0.3,2.6l-7.6,20.9C112.3,104.6,111.3,105.3,110.1,105.3z"/>
	</g>
	<g>
		<path class="st0" d="M91.1,120.5c-0.1,0-0.3,0-0.4,0c-1.6-0.2-2.6-1.7-2.4-3.2l3.3-21.4H58.4l3.3,21.4c0.2,1.6-0.8,3-2.4,3.2
			c-1.6,0.3-3-0.8-3.2-2.4l-3.8-24.6c-0.1-0.8,0.1-1.7,0.7-2.3c0.5-0.6,1.3-1,2.2-1h39.8c0.8,0,1.6,0.4,2.2,1
			c0.5,0.6,0.8,1.5,0.7,2.3l-3.8,24.6C93.7,119.5,92.5,120.5,91.1,120.5L91.1,120.5z"/>
	</g>
	<g>
		<path class="st0" d="M114.8,83.5c-1.6,0-2.8-1.3-2.8-2.8c0-7.5-4-14.6-10.5-18.5c-1.3-0.8-1.8-2.6-0.9-3.9
			c0.8-1.3,2.6-1.8,3.9-0.9c8.1,5,13.2,13.9,13.2,23.4C117.7,82.3,116.4,83.5,114.8,83.5z"/>
	</g>
	<g>
		<circle class="st0" cx="99.6" cy="57.9" r="5.7"/>
	</g>
	<g>
		<path class="st0" d="M75,59.8c-8.4,0-15.2-6.8-15.2-15.2S66.6,29.5,75,29.5s15.2,6.8,15.2,15.2S83.4,59.8,75,59.8z M75,35.2
			c-5.2,0-9.5,4.3-9.5,9.5s4.3,9.5,9.5,9.5s9.5-4.3,9.5-9.5S80.2,35.2,75,35.2z"/>
	</g>
	<g>
		<path class="st0" d="M103.4,84.5c-1.6,0-2.8-1.3-2.8-2.8c0-6.8-5.5-12.3-12.3-12.3H61.7c-6.8,0-12.3,5.5-12.3,12.3
			c0,1.6-1.3,2.8-2.8,2.8c-1.6,0-2.8-1.3-2.8-2.8c0-9.9,8.1-18,18-18h26.5c9.9,0,18,8.1,18,18C106.3,83.2,105,84.5,103.4,84.5z"/>
	</g>
</g>
</svg>
