<?xml version="1.0" encoding="utf-8"?>
<!-- Generator: Adobe Illustrator 25.0.1, SVG Export Plug-In . SVG Version: 6.00 Build 0)  -->
<svg version="1.1" id="Capa_1" xmlns="http://www.w3.org/2000/svg" xmlns:xlink="http://www.w3.org/1999/xlink" x="0px" y="0px"
	 viewBox="0 0 150 150" style="enable-background:new 0 0 150 150;" xml:space="preserve">
<style type="text/css">
	.st0{fill:#FF5900;}
</style>
<g>
	<path class="st0" d="M115,102.8c3.6-4.9,5.5-10.5,5.5-16.5c0-9.5-4.9-18.4-13.3-23.9c-0.8-8.5-4.7-16.4-11.4-22.5
		c-7.3-6.7-17.1-10.4-27.4-10.4S48.4,33.2,41,39.9c-7.4,6.8-11.5,15.9-11.5,25.5c0,7.4,2.4,14.5,6.9,20.5l-6.7,16.5
		c-0.5,1.3-0.2,2.9,0.8,3.9c0.7,0.7,1.6,1,2.5,1c0.5,0,1-0.1,1.4-0.3l19.1-8.4c2.4,0.9,4.9,1.6,7.4,2.1c2.6,4.3,6.3,7.9,10.8,10.5
		c5,2.9,10.8,4.5,16.7,4.5c0.1,0,0.2,0,0.3,0c4.1,0,8.1-0.7,11.9-2.1l15,6.6c0.5,0.2,0.9,0.3,1.4,0.3c0.9,0,1.8-0.3,2.5-1
		c1-1,1.4-2.5,0.8-3.9L115,102.8z M107.7,103.5l2.7,6.6l-8.3-3.7c-0.9-0.4-1.9-0.4-2.8,0c-3.3,1.4-6.8,2.1-10.4,2.1c0,0-0.1,0-0.1,0
		c-7,0-13.6-2.7-18.2-7.3c5.9-0.3,11.6-1.8,16.7-4.4c1.8-0.9,2.4-3,1.6-4.8c-0.9-1.8-3-2.4-4.8-1.6c-4.7,2.4-10.1,3.7-15.5,3.7
		c-4.7,0-9.3-0.9-13.5-2.7c-0.9-0.4-1.9-0.4-2.8,0L39.6,97l4.2-10.4c0.5-1.2,0.3-2.6-0.6-3.6c-4.3-5.1-6.6-11.2-6.6-17.6
		c0-15.9,14.3-28.8,31.8-28.8s31.8,12.9,31.8,28.8c0,5.1-1.5,10.2-4.4,14.6c-1.1,1.6-0.6,3.8,1,4.9c1.6,1.1,3.8,0.6,4.9-1
		c2.5-3.9,4.2-8.2,5-12.7c4.2,4.1,6.5,9.4,6.5,15.1c0,5-1.8,9.7-5.1,13.6C107.4,100.9,107.2,102.3,107.7,103.5z M71.8,83.7
		c0,2-1.6,3.6-3.6,3.6l0,0c-2,0-3.6-1.6-3.6-3.6c0-2,1.6-3.6,3.6-3.6l0,0C70.2,80.2,71.8,81.7,71.8,83.7z M81.8,57.1
		c0,0,0,0.1,0,0.1c0,5.4-3.2,10.2-8.1,12.3c-1,0.4-1.7,1.5-1.7,2.6v0.2c0,2-1.6,3.6-3.6,3.6c-2,0-3.6-1.6-3.6-3.6v-0.2
		c0-4,2.4-7.6,6-9.2c2.3-1,3.7-3.2,3.8-5.6c0,0,0-0.1,0-0.1c0-3.4-2.8-6.2-6.2-6.2c-3.4,0-6.2,2.8-6.2,6.2c0,2-1.6,3.6-3.6,3.6
		s-3.6-1.6-3.6-3.6c0-7.3,6-13.3,13.3-13.3C75.7,43.9,81.7,49.8,81.8,57.1z"/>
</g>
</svg>
