<?xml version="1.0" encoding="utf-8"?>
<!-- Generator: Adobe Illustrator 25.0.1, SVG Export Plug-In . SVG Version: 6.00 Build 0)  -->
<svg version="1.1" id="Capa_1" xmlns="http://www.w3.org/2000/svg" xmlns:xlink="http://www.w3.org/1999/xlink" x="0px" y="0px"
	 viewBox="0 0 150 150" style="enable-background:new 0 0 150 150;" xml:space="preserve">
<style type="text/css">
	.st0{fill:#FF5900;}
</style>
<g>
	<path class="st0" d="M34.3,114.6c0.8,0.9,2,1.2,3.1,0.8l12.6-4.3l5.2,12.2c0.5,1.1,1.5,1.8,2.7,1.8h0c1.2,0,2.2-0.7,2.7-1.7
		l9.8-22.2c1.5,0.2,3.1,0.3,4.7,0.3c1.6,0,3.1-0.1,4.7-0.3l9.8,22.2c0.5,1.1,1.5,1.7,2.7,1.7h0c1.2,0,2.2-0.7,2.7-1.8l5.2-12.2
		l12.6,4.3c1.1,0.4,2.3,0.1,3.1-0.8c0.8-0.9,1-2.1,0.5-3.2l-11-25c4.9-6.4,7.9-14.5,7.9-23.2C113.1,42.2,96,25,75,25
		S36.9,42.2,36.9,63.3c0,8.7,2.9,16.7,7.9,23.2l-11,25C33.3,112.5,33.5,113.7,34.3,114.6z M108.2,107.7l-8.8-3
		c-1.4-0.5-3,0.2-3.6,1.6l-3.7,8.5l-6.6-14.9c5.8-1.7,11.1-4.7,15.4-8.7L108.2,107.7z M42.8,63.3c0-17.9,14.5-32.4,32.2-32.4
		s32.2,14.6,32.2,32.4c0,17.8-14.5,32.2-32.2,32.2S42.8,81.1,42.8,63.3z M49.1,91.2c4.3,4,9.6,7,15.4,8.7l-6.6,14.9l-3.7-8.5
		c-0.6-1.4-2.2-2.1-3.6-1.6l-8.8,3L49.1,91.2z"/>
	<path class="st0" d="M63.5,67l-1.7,10c-0.2,1.1,0.3,2.2,1.2,2.9c0.9,0.7,2.1,0.7,3.1,0.2l9-4.7l9,4.7c1,0.5,2.2,0.4,3.1-0.2
		c0.9-0.7,1.4-1.8,1.2-2.9l-1.7-10l7.3-7.1c0.8-0.8,1.1-1.9,0.7-3c-0.3-1.1-1.3-1.8-2.4-2l-10-1.5l-4.5-9.1c-0.5-1-1.5-1.6-2.6-1.6
		c-1.1,0-2.1,0.6-2.6,1.6l-4.5,9.1l-10,1.5c-1.1,0.2-2,0.9-2.4,2c-0.3,1.1-0.1,2.2,0.7,3L63.5,67z M70.3,59.1c1-0.1,1.8-0.7,2.2-1.6
		l2.5-5.1l2.5,5.1c0.4,0.9,1.3,1.5,2.2,1.6l5.7,0.8l-4.1,4c-0.7,0.7-1,1.6-0.8,2.6l1,5.7l-5.1-2.7c-0.9-0.4-1.9-0.4-2.7,0l-5.1,2.7
		l1-5.7c0.2-1-0.2-1.9-0.8-2.6l-4.1-4L70.3,59.1z"/>
</g>
</svg>
