<?xml version="1.0" encoding="utf-8"?>
<!-- Generator: Adobe Illustrator 25.0.1, SVG Export Plug-In . SVG Version: 6.00 Build 0)  -->
<svg version="1.1" id="Capa_1" xmlns="http://www.w3.org/2000/svg" xmlns:xlink="http://www.w3.org/1999/xlink" x="0px" y="0px"
	 viewBox="0 0 150 150" style="enable-background:new 0 0 150 150;" xml:space="preserve">
<style type="text/css">
	.st0{fill:#FF5900;}
</style>
<g>
	<path class="st0" d="M103.7,69.4v-3.6l1.4-0.7c6.2-3.1,10.1-9.4,10.1-16.4c0-10.1-8.2-18.3-18.3-18.3H86.5c-4,0-7.2,3.2-7.2,7.2
		c0,3.2,2.1,5.9,5,6.8c-0.1,0.2-0.2,0.4-0.2,0.6l-1.7,6.1c-0.1,0.4-0.2,0.9-0.2,1.3c0,2.1,1.3,3.9,3.3,4.5l1,0.3v2.7
		c0,1.7,0.7,3.3,1.9,4.5c1.1,1.1,2.4,1.7,3.9,1.8v3.2c-5.3,1.4-9.9,4.6-13,9l-2.7-10.8L77,65h2.3c2.4,0,4.3-1.9,4.3-4.3
		c0-2.4-1.9-4.3-4.3-4.3H59.2v-8.6H30.5v25.8h28.7V65h1.7c0.2,0.8,0.5,1.5,1,2.2l3.2,4.2l4,14c1.2,4,4.9,6.9,9.1,6.9
		c2.6,0,5.1-1.1,6.9-3v30.2h25.8V108h1.4c4,0,7.2-3.2,7.2-7.2V88C119.5,78.6,112.8,70.9,103.7,69.4L103.7,69.4z M100.7,91.7L98,94.5
		l-2.8-2.8l2.3-12.9l0.4-0.4l0.4,0.4L100.7,91.7z M93,72.3L93,72.3l3.1,4l-2.8,2.7l-0.7-6.6C92.7,72.4,92.9,72.4,93,72.3L93,72.3z
		 M99.9,76.3l3.1-4.1c0.1,0,0.3,0,0.4,0.1l-0.8,6.8L99.9,76.3z M82.2,37.7c0-2.4,1.9-4.3,4.3-4.3h10.4c8.5,0,15.4,6.9,15.4,15.4
		c0,5.9-3.3,11.2-8.5,13.8l-0.1,0v-2.6c1.8-1.1,2.9-3,2.9-5.2s-1.1-4.1-2.9-5.2v-2c0-3.2-2.6-5.7-5.7-5.7h-0.3
		c0.2-0.5,0.3-0.9,0.3-1.4c0-2.4-1.9-4.3-4.3-4.3h-2.9v2.9h2.9c0.8,0,1.4,0.6,1.4,1.4S94.5,42,93.7,42h-1.4h-5.7
		C84.1,42,82.2,40.1,82.2,37.7z M89.4,60.1v-4.7l-3-1c-0.8-0.3-1.3-1-1.3-1.8c0-0.2,0-0.4,0.1-0.5l1.7-6.1c0.1-0.4,0.3-0.7,0.4-1
		h4.9h1.4H98c1.6,0,2.9,1.3,2.9,2.9v3.8l1.1,0.5c1.1,0.5,1.8,1.6,1.8,2.9c0,1.2-0.7,2.3-1.8,2.9l-1.1,0.5v11.9L98,74l-2.9-3.8v-3.8
		H98v-2.9h-5.1h0c-0.9,0-1.8-0.4-2.4-1C89.7,61.9,89.4,61,89.4,60.1L89.4,60.1z M54.6,60.6l2.2-1.4h15.4v2.9H56.8L54.6,60.6z
		 M80.7,60.6c0,0.8-0.6,1.4-1.4,1.4H75v-2.9h4.3C80.1,59.2,80.7,59.9,80.7,60.6z M56.3,70.7h-23V50.6h23v5.7h-0.4l-6.5,4.3l6.5,4.3
		h0.4V70.7z M64,65h10.1l-0.4,1.8L66.9,69l-2.7-3.6C64.1,65.3,64,65.1,64,65z M83.4,86.7c-1.2,1.6-3.2,2.6-5.3,2.6
		c-2.9,0-5.5-2-6.3-4.8l-3.7-13l5.8-1.9l3.9,15.7l2.8-0.7l-0.5-2.2c2.1-4.1,5.5-7.2,9.7-9l1.3,11.8l2.8-2.9l-1.9,10.3l5.9,5.9
		l5.9-5.9L102,82.5l2.8,2.9l1.4-12.3c6.2,2.2,10.5,8.1,10.5,15v8.5h-5.7V82.2H108v17.2H87.9V82.2H85v2.4L83.4,86.7z M99.4,116.6
		v-9.2l-3.3-3.3l-2,2l2.5,2.5v8h-8.6v-14.4H108v14.4H99.4z M112.3,105.1h-1.4v-5.7h5.7v1.4C116.6,103.2,114.7,105.1,112.3,105.1z"/>
	<path class="st0" d="M52.5,52.5L39.1,65.8l-1.9-1.9l-2,2l3.9,3.9l15.4-15.4L52.5,52.5z"/>
	<path class="st0" d="M30.5,96.5h20.1V76.4H30.5V96.5z M33.4,79.3h14.4v14.4H33.4V79.3z"/>
	<path class="st0" d="M30.5,119.5h20.1V99.4H30.5V119.5z M33.4,102.3h14.4v14.4H33.4V102.3z"/>
	<path class="st0" d="M53.5,99.4h23v2.9h-23V99.4z"/>
	<path class="st0" d="M53.5,105.1h23v2.9h-23V105.1z"/>
	<path class="st0" d="M53.5,110.9h2.9v2.9h-2.9V110.9z"/>
	<path class="st0" d="M59.2,110.9h17.2v2.9H59.2V110.9z"/>
	<path class="st0" d="M53.5,116.6h23v2.9h-23V116.6z"/>
	<path class="st0" d="M53.5,93.7H65v2.9H53.5V93.7z"/>
	<path class="st0" d="M53.5,87.9H65v2.9H53.5V87.9z"/>
	<path class="st0" d="M53.5,82.2H65V85H53.5V82.2z"/>
	<path class="st0" d="M53.5,76.4H65v2.9H53.5V76.4z"/>
</g>
</svg>
