<?xml version="1.0" encoding="utf-8"?>
<!-- Generator: Adobe Illustrator 25.0.1, SVG Export Plug-In . SVG Version: 6.00 Build 0)  -->
<svg version="1.1" id="Capa_1" xmlns="http://www.w3.org/2000/svg" xmlns:xlink="http://www.w3.org/1999/xlink" x="0px" y="0px"
	 viewBox="0 0 150 150" style="enable-background:new 0 0 150 150;" xml:space="preserve">
<style type="text/css">
	.st0{fill:#FF5900;}
</style>
<g>
	<path class="st0" d="M39.5,42.3h36.6c1.6,0,3-1.3,3-3s-1.3-3-3-3H39.5c-1.6,0-3,1.3-3,3S37.9,42.3,39.5,42.3z"/>
	<path class="st0" d="M39.5,54.1h36.6c1.6,0,3-1.3,3-3s-1.3-3-3-3H39.5c-1.6,0-3,1.3-3,3S37.9,54.1,39.5,54.1z"/>
	<path class="st0" d="M59.2,60H39.5c-1.6,0-3,1.3-3,3c0,1.6,1.3,3,3,3h19.7c1.6,0,3-1.3,3-3C62.1,61.4,60.8,60,59.2,60z"/>
	<path class="st0" d="M122.5,60H91.4V27.6c0-1.6-1.3-3-3-3h-61c-1.6,0-3,1.3-3,3v47.5c0,1.6,1.3,3,3,3h6.9v12.6
		c0,1.2,0.8,2.3,1.9,2.8c0.3,0.1,0.7,0.2,1,0.2c0.8,0,1.7-0.4,2.2-1l12.7-14.5H68v26.9c0,1.6,1.3,3,3,3h26.7l12.7,16.3
		c0.6,0.7,1.4,1.1,2.3,1.1c0.3,0,0.6-0.1,1-0.2c1.2-0.4,2-1.5,2-2.8v-14.5h6.9c1.6,0,3-1.3,3-3V63C125.5,61.4,124.2,60,122.5,60z
		 M50.8,72.1c-0.9,0-1.7,0.4-2.2,1l-8.4,9.6v-7.6c0-1.6-1.3-3-3-3h-6.9V30.5h55.1V60H71c-1.6,0-3,1.3-3,3v9.1H50.8z M119.6,102h-6.9
		c-1.6,0-3,1.3-3,3v8.9l-8.3-10.7c-0.6-0.7-1.4-1.1-2.3-1.1H73.9V66h45.7V102z"/>
	<path class="st0" d="M90.2,93.6c0.5,0.7,1.4,1.2,2.2,1.2c0,0,0.1,0,0.1,0c0.8,0,1.7-0.4,2.2-1l14.5-16.5c1.1-1.2,1-3.1-0.3-4.2
		c-1.2-1.1-3.1-1-4.2,0.3L92.7,87.2l-3.4-4.6c-1-1.3-2.8-1.6-4.1-0.6c-1.3,1-1.6,2.8-0.6,4.1L90.2,93.6z"/>
</g>
</svg>
