<?xml version="1.0" encoding="utf-8"?>
<!-- Generator: Adobe Illustrator 25.0.1, SVG Export Plug-In . SVG Version: 6.00 Build 0)  -->
<svg version="1.1" id="Capa_1" xmlns="http://www.w3.org/2000/svg" xmlns:xlink="http://www.w3.org/1999/xlink" x="0px" y="0px"
	 viewBox="0 0 150 150" style="enable-background:new 0 0 150 150;" xml:space="preserve">
<style type="text/css">
	.st0{fill:#FF5900;}
</style>
<g>
	<g>
		<g>
			<circle class="st0" cx="63.2" cy="110.4" r="3.6"/>
			<circle class="st0" cx="75.9" cy="110.4" r="3.6"/>
			<path class="st0" d="M89.6,51.6c0-3-1.7-5.7-4.5-6.9L52.7,29.5c-1.3-0.6-2.7-0.9-4.1-0.8c-2.3,0.1-4.5,1-6.2,2.7
				c-1.7,1.7-2.7,4-2.7,6.5v62.4c-4.2,1.5-7.2,5.5-7.2,10.2c0,6,4.9,10.9,10.9,10.9c2,0,3.6-1.6,3.6-3.6s-1.6-3.6-3.6-3.6
				c-2,0-3.6-1.6-3.6-3.6s1.6-3.6,3.6-3.6c2,0,3.6,1.6,3.6,3.6c0,2,1.6,3.6,3.6,3.6c2,0,3.6-1.6,3.6-3.6c0-4.7-3-8.7-7.2-10.2V37.8
				c0-1.1,1-1.9,1.8-1.9c0.3,0,0.6,0.1,0.8,0.2l32.5,15.1c0.1,0,0.3,0.1,0.3,0.4c0,0.3-0.2,0.4-0.3,0.4L55.9,63
				c-1.8,0.8-2.7,2.9-1.9,4.7c0.8,1.8,2.9,2.7,4.7,1.9l26.3-11C87.8,57.5,89.7,54.7,89.6,51.6z"/>
			<circle class="st0" cx="88.6" cy="110.4" r="3.6"/>
			<circle class="st0" cx="113.9" cy="110.4" r="3.6"/>
			<circle class="st0" cx="101.2" cy="110.4" r="3.6"/>
		</g>
	</g>
</g>
</svg>
