<?xml version="1.0" encoding="utf-8"?>
<!-- Generator: Adobe Illustrator 25.0.1, SVG Export Plug-In . SVG Version: 6.00 Build 0)  -->
<svg version="1.1" id="Capa_1" xmlns="http://www.w3.org/2000/svg" xmlns:xlink="http://www.w3.org/1999/xlink" x="0px" y="0px"
	 viewBox="0 0 150 150" style="enable-background:new 0 0 150 150;" xml:space="preserve">
<style type="text/css">
	.st0{fill:#FF5900;}
</style>
<g>
	<g>
		<g>
			<circle class="st0" cx="98.6" cy="66.6" r="3.6"/>
			<path class="st0" d="M106.9,35.8h-4.7v-3.6c0-2-1.6-3.6-3.6-3.6S95,30.2,95,32.2v3.6H78.4v-3.6c0-2-1.6-3.6-3.6-3.6
				s-3.6,1.6-3.6,3.6v3.6H54.8v-3.6c0-2-1.6-3.6-3.6-3.6s-3.6,1.6-3.6,3.6v3.6h-4.5c-8,0-14.5,6.5-14.5,14.5v56.6
				c0,8,6.5,14.5,14.5,14.5h27.8c2,0,3.6-1.6,3.6-3.6s-1.6-3.6-3.6-3.6H43.1c-4,0-7.3-3.3-7.3-7.3V50.3c0-4,3.3-7.3,7.3-7.3h4.5v3.6
				c0,2,1.6,3.6,3.6,3.6c2,0,3.6-1.6,3.6-3.6v-3.6h16.3v3.6c0,2,1.6,3.6,3.6,3.6c2,0,3.6-1.6,3.6-3.6v-3.6H95v3.6
				c0,2,1.6,3.6,3.6,3.6s3.6-1.6,3.6-3.6v-3.6h4.7c4,0,7.3,3.3,7.3,7.3V71c0,2,1.6,3.6,3.6,3.6s3.6-1.6,3.6-3.6V50.3
				C121.5,42.3,115,35.8,106.9,35.8z"/>
			<path class="st0" d="M99.5,77.5c-12.1,0-22,9.9-22,22s9.9,22,22,22s22-9.9,22-22S111.6,77.5,99.5,77.5z M99.5,114.2
				c-8.1,0-14.7-6.6-14.7-14.7s6.6-14.7,14.7-14.7s14.7,6.6,14.7,14.7S107.6,114.2,99.5,114.2z"/>
			<path class="st0" d="M104.8,95.9h-1.6v-3.8c0-2-1.6-3.6-3.6-3.6s-3.6,1.6-3.6,3.6v7.4c0,2,1.6,3.6,3.6,3.6h5.3
				c2,0,3.6-1.6,3.6-3.6S106.8,95.9,104.8,95.9z"/>
			<circle class="st0" cx="82.8" cy="66.6" r="3.6"/>
			<circle class="st0" cx="67" cy="82.4" r="3.6"/>
			<circle class="st0" cx="51.2" cy="66.6" r="3.6"/>
			<circle class="st0" cx="51.2" cy="82.4" r="3.6"/>
			<circle class="st0" cx="51.2" cy="98.2" r="3.6"/>
			<circle class="st0" cx="67" cy="98.2" r="3.6"/>
			<circle class="st0" cx="67" cy="66.6" r="3.6"/>
		</g>
	</g>
</g>
</svg>
